{
	"patcher" : 	{
		"fileversion" : 1,
		"appversion" : 		{
			"major" : 7,
			"minor" : 3,
			"revision" : 3,
			"architecture" : "x64",
			"modernui" : 1
		}
,
		"rect" : [ 34.0, 77.0, 1532.0, 749.0 ],
		"bglocked" : 0,
		"openinpresentation" : 0,
		"default_fontsize" : 12.0,
		"default_fontface" : 0,
		"default_fontname" : "Arial",
		"gridonopen" : 1,
		"gridsize" : [ 15.0, 15.0 ],
		"gridsnaponopen" : 1,
		"objectsnaponopen" : 1,
		"statusbarvisible" : 2,
		"toolbarvisible" : 1,
		"lefttoolbarpinned" : 0,
		"toptoolbarpinned" : 0,
		"righttoolbarpinned" : 0,
		"bottomtoolbarpinned" : 0,
		"toolbars_unpinned_last_save" : 0,
		"tallnewobj" : 0,
		"boxanimatetime" : 200,
		"enablehscroll" : 1,
		"enablevscroll" : 1,
		"devicewidth" : 0.0,
		"description" : "",
		"digest" : "",
		"tags" : "",
		"style" : "",
		"subpatcher_template" : "",
		"boxes" : [ 			{
				"box" : 				{
					"bgmode" : 0,
					"border" : 0,
					"clickthrough" : 0,
					"enablehscroll" : 0,
					"enablevscroll" : 0,
					"id" : "obj-62",
					"lockeddragscroll" : 0,
					"maxclass" : "bpatcher",
					"name" : "pulse~.maxpat",
					"numinlets" : 3,
					"numoutlets" : 2,
					"offset" : [ 0.0, 0.0 ],
					"outlettype" : [ "signal", "signal" ],
					"patching_rect" : [ 992.0, 937.0, 93.0, 58.0 ],
					"presentation" : 1,
					"presentation_rect" : [ 1578.0, 427.0, 367.0, 124.0 ],
					"varname" : "ch00[12]",
					"viewvisibility" : 1
				}

			}
, 			{
				"box" : 				{
					"bgmode" : 0,
					"border" : 0,
					"clickthrough" : 0,
					"enablehscroll" : 0,
					"enablevscroll" : 0,
					"id" : "obj-64",
					"lockeddragscroll" : 0,
					"maxclass" : "bpatcher",
					"name" : "pulse~.maxpat",
					"numinlets" : 3,
					"numoutlets" : 2,
					"offset" : [ 0.0, 0.0 ],
					"outlettype" : [ "signal", "signal" ],
					"patching_rect" : [ 887.333313, 937.0, 93.0, 58.0 ],
					"presentation" : 1,
					"presentation_rect" : [ 1209.0, 427.0, 367.0, 124.0 ],
					"varname" : "ch00[13]",
					"viewvisibility" : 1
				}

			}
, 			{
				"box" : 				{
					"bgmode" : 0,
					"border" : 0,
					"clickthrough" : 0,
					"enablehscroll" : 0,
					"enablevscroll" : 0,
					"id" : "obj-65",
					"lockeddragscroll" : 0,
					"maxclass" : "bpatcher",
					"name" : "pulse~.maxpat",
					"numinlets" : 3,
					"numoutlets" : 2,
					"offset" : [ 0.0, 0.0 ],
					"outlettype" : [ "signal", "signal" ],
					"patching_rect" : [ 782.666687, 937.0, 93.0, 58.0 ],
					"presentation" : 1,
					"presentation_rect" : [ 840.0, 427.0, 367.0, 124.0 ],
					"varname" : "ch00[14]",
					"viewvisibility" : 1
				}

			}
, 			{
				"box" : 				{
					"bgmode" : 0,
					"border" : 0,
					"clickthrough" : 0,
					"enablehscroll" : 0,
					"enablevscroll" : 0,
					"id" : "obj-66",
					"lockeddragscroll" : 0,
					"maxclass" : "bpatcher",
					"name" : "pulse~.maxpat",
					"numinlets" : 3,
					"numoutlets" : 2,
					"offset" : [ 0.0, 0.0 ],
					"outlettype" : [ "signal", "signal" ],
					"patching_rect" : [ 678.0, 937.0, 93.0, 58.0 ],
					"presentation" : 1,
					"presentation_rect" : [ 471.0, 427.0, 367.0, 124.0 ],
					"varname" : "ch00[15]",
					"viewvisibility" : 1
				}

			}
, 			{
				"box" : 				{
					"bgmode" : 0,
					"border" : 0,
					"clickthrough" : 0,
					"enablehscroll" : 0,
					"enablevscroll" : 0,
					"id" : "obj-58",
					"lockeddragscroll" : 0,
					"maxclass" : "bpatcher",
					"name" : "pulse~.maxpat",
					"numinlets" : 3,
					"numoutlets" : 2,
					"offset" : [ 0.0, 0.0 ],
					"outlettype" : [ "signal", "signal" ],
					"patching_rect" : [ 992.0, 844.0, 93.0, 58.0 ],
					"presentation" : 1,
					"presentation_rect" : [ 1578.0, 290.0, 367.0, 124.0 ],
					"varname" : "ch00[8]",
					"viewvisibility" : 1
				}

			}
, 			{
				"box" : 				{
					"bgmode" : 0,
					"border" : 0,
					"clickthrough" : 0,
					"enablehscroll" : 0,
					"enablevscroll" : 0,
					"id" : "obj-59",
					"lockeddragscroll" : 0,
					"maxclass" : "bpatcher",
					"name" : "pulse~.maxpat",
					"numinlets" : 3,
					"numoutlets" : 2,
					"offset" : [ 0.0, 0.0 ],
					"outlettype" : [ "signal", "signal" ],
					"patching_rect" : [ 887.333313, 844.0, 93.0, 58.0 ],
					"presentation" : 1,
					"presentation_rect" : [ 1209.0, 290.0, 367.0, 124.0 ],
					"varname" : "ch00[9]",
					"viewvisibility" : 1
				}

			}
, 			{
				"box" : 				{
					"bgmode" : 0,
					"border" : 0,
					"clickthrough" : 0,
					"enablehscroll" : 0,
					"enablevscroll" : 0,
					"id" : "obj-60",
					"lockeddragscroll" : 0,
					"maxclass" : "bpatcher",
					"name" : "pulse~.maxpat",
					"numinlets" : 3,
					"numoutlets" : 2,
					"offset" : [ 0.0, 0.0 ],
					"outlettype" : [ "signal", "signal" ],
					"patching_rect" : [ 782.666687, 844.0, 93.0, 58.0 ],
					"presentation" : 1,
					"presentation_rect" : [ 840.0, 290.0, 367.0, 124.0 ],
					"varname" : "ch00[10]",
					"viewvisibility" : 1
				}

			}
, 			{
				"box" : 				{
					"bgmode" : 0,
					"border" : 0,
					"clickthrough" : 0,
					"enablehscroll" : 0,
					"enablevscroll" : 0,
					"id" : "obj-61",
					"lockeddragscroll" : 0,
					"maxclass" : "bpatcher",
					"name" : "pulse~.maxpat",
					"numinlets" : 3,
					"numoutlets" : 2,
					"offset" : [ 0.0, 0.0 ],
					"outlettype" : [ "signal", "signal" ],
					"patching_rect" : [ 678.0, 844.0, 93.0, 58.0 ],
					"presentation" : 1,
					"presentation_rect" : [ 471.0, 290.0, 367.0, 124.0 ],
					"varname" : "ch00[11]",
					"viewvisibility" : 1
				}

			}
, 			{
				"box" : 				{
					"bgmode" : 0,
					"border" : 0,
					"clickthrough" : 0,
					"enablehscroll" : 0,
					"enablevscroll" : 0,
					"id" : "obj-53",
					"lockeddragscroll" : 0,
					"maxclass" : "bpatcher",
					"name" : "pulse~.maxpat",
					"numinlets" : 3,
					"numoutlets" : 2,
					"offset" : [ 0.0, 0.0 ],
					"outlettype" : [ "signal", "signal" ],
					"patching_rect" : [ 992.0, 759.0, 93.0, 58.0 ],
					"presentation" : 1,
					"presentation_rect" : [ 1578.0, 156.0, 367.0, 124.0 ],
					"varname" : "ch00[4]",
					"viewvisibility" : 1
				}

			}
, 			{
				"box" : 				{
					"bgmode" : 0,
					"border" : 0,
					"clickthrough" : 0,
					"enablehscroll" : 0,
					"enablevscroll" : 0,
					"id" : "obj-54",
					"lockeddragscroll" : 0,
					"maxclass" : "bpatcher",
					"name" : "pulse~.maxpat",
					"numinlets" : 3,
					"numoutlets" : 2,
					"offset" : [ 0.0, 0.0 ],
					"outlettype" : [ "signal", "signal" ],
					"patching_rect" : [ 887.333313, 759.0, 93.0, 58.0 ],
					"presentation" : 1,
					"presentation_rect" : [ 1209.0, 156.0, 367.0, 124.0 ],
					"varname" : "ch00[5]",
					"viewvisibility" : 1
				}

			}
, 			{
				"box" : 				{
					"bgmode" : 0,
					"border" : 0,
					"clickthrough" : 0,
					"enablehscroll" : 0,
					"enablevscroll" : 0,
					"id" : "obj-56",
					"lockeddragscroll" : 0,
					"maxclass" : "bpatcher",
					"name" : "pulse~.maxpat",
					"numinlets" : 3,
					"numoutlets" : 2,
					"offset" : [ 0.0, 0.0 ],
					"outlettype" : [ "signal", "signal" ],
					"patching_rect" : [ 782.666687, 759.0, 93.0, 58.0 ],
					"presentation" : 1,
					"presentation_rect" : [ 840.0, 156.0, 367.0, 124.0 ],
					"varname" : "ch00[6]",
					"viewvisibility" : 1
				}

			}
, 			{
				"box" : 				{
					"bgmode" : 0,
					"border" : 0,
					"clickthrough" : 0,
					"enablehscroll" : 0,
					"enablevscroll" : 0,
					"id" : "obj-57",
					"lockeddragscroll" : 0,
					"maxclass" : "bpatcher",
					"name" : "pulse~.maxpat",
					"numinlets" : 3,
					"numoutlets" : 2,
					"offset" : [ 0.0, 0.0 ],
					"outlettype" : [ "signal", "signal" ],
					"patching_rect" : [ 678.0, 759.0, 93.0, 58.0 ],
					"presentation" : 1,
					"presentation_rect" : [ 471.0, 156.0, 367.0, 124.0 ],
					"varname" : "ch00[7]",
					"viewvisibility" : 1
				}

			}
, 			{
				"box" : 				{
					"bgmode" : 0,
					"border" : 0,
					"clickthrough" : 0,
					"enablehscroll" : 0,
					"enablevscroll" : 0,
					"id" : "obj-45",
					"lockeddragscroll" : 0,
					"maxclass" : "bpatcher",
					"name" : "pulse~.maxpat",
					"numinlets" : 3,
					"numoutlets" : 2,
					"offset" : [ 0.0, 0.0 ],
					"outlettype" : [ "signal", "signal" ],
					"patching_rect" : [ 992.0, 675.0, 93.0, 58.0 ],
					"presentation" : 1,
					"presentation_rect" : [ 1578.0, 22.0, 367.0, 124.0 ],
					"varname" : "ch00[3]",
					"viewvisibility" : 1
				}

			}
, 			{
				"box" : 				{
					"bgmode" : 0,
					"border" : 0,
					"clickthrough" : 0,
					"enablehscroll" : 0,
					"enablevscroll" : 0,
					"id" : "obj-43",
					"lockeddragscroll" : 0,
					"maxclass" : "bpatcher",
					"name" : "pulse~.maxpat",
					"numinlets" : 3,
					"numoutlets" : 2,
					"offset" : [ 0.0, 0.0 ],
					"outlettype" : [ "signal", "signal" ],
					"patching_rect" : [ 887.333313, 675.0, 93.0, 58.0 ],
					"presentation" : 1,
					"presentation_rect" : [ 1209.0, 22.0, 367.0, 124.0 ],
					"varname" : "ch00[2]",
					"viewvisibility" : 1
				}

			}
, 			{
				"box" : 				{
					"bgmode" : 0,
					"border" : 0,
					"clickthrough" : 0,
					"enablehscroll" : 0,
					"enablevscroll" : 0,
					"id" : "obj-41",
					"lockeddragscroll" : 0,
					"maxclass" : "bpatcher",
					"name" : "pulse~.maxpat",
					"numinlets" : 3,
					"numoutlets" : 2,
					"offset" : [ 0.0, 0.0 ],
					"outlettype" : [ "signal", "signal" ],
					"patching_rect" : [ 782.666687, 675.0, 93.0, 58.0 ],
					"presentation" : 1,
					"presentation_rect" : [ 840.0, 22.0, 367.0, 124.0 ],
					"varname" : "ch00[1]",
					"viewvisibility" : 1
				}

			}
, 			{
				"box" : 				{
					"id" : "obj-40",
					"maxclass" : "live.gain~",
					"numinlets" : 2,
					"numoutlets" : 5,
					"outlettype" : [ "signal", "signal", "", "float", "list" ],
					"parameter_enable" : 1,
					"patching_rect" : [ 1186.0, 1025.0, 48.0, 136.0 ],
					"presentation" : 1,
					"presentation_rect" : [ 471.0, 560.0, 54.0, 111.0 ],
					"saved_attribute_attributes" : 					{
						"valueof" : 						{
							"parameter_longname" : "live.gain~",
							"parameter_shortname" : "live.gain~",
							"parameter_type" : 0,
							"parameter_mmin" : -70.0,
							"parameter_mmax" : 6.0,
							"parameter_initial" : [ 0.0 ],
							"parameter_unitstyle" : 4
						}

					}
,
					"varname" : "live.gain~"
				}

			}
, 			{
				"box" : 				{
					"id" : "obj-29",
					"maxclass" : "toggle",
					"numinlets" : 1,
					"numoutlets" : 1,
					"outlettype" : [ "int" ],
					"parameter_enable" : 0,
					"patching_rect" : [ 1065.0, 211.0, 24.0, 24.0 ],
					"style" : ""
				}

			}
, 			{
				"box" : 				{
					"id" : "obj-11",
					"maxclass" : "button",
					"numinlets" : 1,
					"numoutlets" : 1,
					"outlettype" : [ "bang" ],
					"patching_rect" : [ 748.0, 59.0, 24.0, 24.0 ],
					"style" : ""
				}

			}
, 			{
				"box" : 				{
					"id" : "obj-44",
					"maxclass" : "button",
					"numinlets" : 1,
					"numoutlets" : 1,
					"outlettype" : [ "bang" ],
					"patching_rect" : [ 157.0, 147.0, 24.0, 24.0 ],
					"presentation" : 1,
					"presentation_rect" : [ 61.0, 350.0, 24.0, 24.0 ],
					"style" : ""
				}

			}
, 			{
				"box" : 				{
					"id" : "obj-37",
					"maxclass" : "newobj",
					"numinlets" : 2,
					"numoutlets" : 1,
					"outlettype" : [ "float" ],
					"patching_rect" : [ 226.0, 62.0, 51.0, 22.0 ],
					"style" : "",
					"text" : "!/ 1000."
				}

			}
, 			{
				"box" : 				{
					"id" : "obj-36",
					"maxclass" : "live.dial",
					"numinlets" : 1,
					"numoutlets" : 2,
					"outlettype" : [ "", "float" ],
					"parameter_enable" : 1,
					"patching_rect" : [ 226.0, 8.0, 44.0, 47.0 ],
					"presentation" : 1,
					"presentation_rect" : [ 51.0, 268.0, 44.0, 47.0 ],
					"saved_attribute_attributes" : 					{
						"valueof" : 						{
							"parameter_longname" : "tempo",
							"parameter_shortname" : "tempo",
							"parameter_type" : 0,
							"parameter_mmin" : 0.1,
							"parameter_mmax" : 60.0,
							"parameter_unitstyle" : 3,
							"parameter_exponent" : 5.0
						}

					}
,
					"varname" : "tempo"
				}

			}
, 			{
				"box" : 				{
					"id" : "obj-35",
					"maxclass" : "comment",
					"numinlets" : 1,
					"numoutlets" : 0,
					"patching_rect" : [ 378.5, 62.0, 85.0, 20.0 ],
					"presentation" : 1,
					"presentation_rect" : [ 30.5, 210.0, 85.0, 20.0 ],
					"style" : "",
					"text" : "render flashes"
				}

			}
, 			{
				"box" : 				{
					"id" : "obj-23",
					"maxclass" : "live.dial",
					"numinlets" : 1,
					"numoutlets" : 2,
					"outlettype" : [ "", "float" ],
					"parameter_enable" : 1,
					"patching_rect" : [ 697.0, 472.0, 44.0, 47.0 ],
					"presentation" : 1,
					"presentation_rect" : [ 405.0, 22.0, 44.0, 47.0 ],
					"saved_attribute_attributes" : 					{
						"valueof" : 						{
							"parameter_longname" : "lfo_03",
							"parameter_shortname" : "lfo_03",
							"parameter_type" : 1,
							"parameter_mmin" : 1.0,
							"parameter_mmax" : 255.0,
							"parameter_unitstyle" : 3,
							"parameter_steps" : 255
						}

					}
,
					"varname" : "lfo03"
				}

			}
, 			{
				"box" : 				{
					"id" : "obj-22",
					"maxclass" : "live.dial",
					"numinlets" : 1,
					"numoutlets" : 2,
					"outlettype" : [ "", "float" ],
					"parameter_enable" : 1,
					"patching_rect" : [ 642.0, 472.0, 44.0, 47.0 ],
					"presentation" : 1,
					"presentation_rect" : [ 345.333313, 22.0, 44.0, 47.0 ],
					"saved_attribute_attributes" : 					{
						"valueof" : 						{
							"parameter_longname" : "lfo_02",
							"parameter_shortname" : "lfo_02",
							"parameter_type" : 1,
							"parameter_mmin" : 1.0,
							"parameter_mmax" : 255.0,
							"parameter_unitstyle" : 3,
							"parameter_steps" : 255
						}

					}
,
					"varname" : "lfo02"
				}

			}
, 			{
				"box" : 				{
					"id" : "obj-21",
					"maxclass" : "live.dial",
					"numinlets" : 1,
					"numoutlets" : 2,
					"outlettype" : [ "", "float" ],
					"parameter_enable" : 1,
					"patching_rect" : [ 587.0, 472.0, 44.0, 47.0 ],
					"presentation" : 1,
					"presentation_rect" : [ 285.666656, 22.0, 44.0, 47.0 ],
					"saved_attribute_attributes" : 					{
						"valueof" : 						{
							"parameter_longname" : "lfo 01",
							"parameter_shortname" : "lfo_01",
							"parameter_type" : 1,
							"parameter_mmin" : 1.0,
							"parameter_mmax" : 255.0,
							"parameter_unitstyle" : 3,
							"parameter_steps" : 255
						}

					}
,
					"varname" : "lfo01"
				}

			}
, 			{
				"box" : 				{
					"id" : "obj-8",
					"maxclass" : "live.dial",
					"numinlets" : 1,
					"numoutlets" : 2,
					"outlettype" : [ "", "float" ],
					"parameter_enable" : 1,
					"patching_rect" : [ 532.0, 472.0, 44.0, 47.0 ],
					"presentation" : 1,
					"presentation_rect" : [ 226.0, 22.0, 44.0, 47.0 ],
					"saved_attribute_attributes" : 					{
						"valueof" : 						{
							"parameter_longname" : "lfo 0",
							"parameter_shortname" : "lfo_00",
							"parameter_type" : 1,
							"parameter_mmin" : 1.0,
							"parameter_mmax" : 255.0,
							"parameter_unitstyle" : 3,
							"parameter_steps" : 255
						}

					}
,
					"varname" : "lfo00"
				}

			}
, 			{
				"box" : 				{
					"autosave" : 1,
					"bgmode" : 1,
					"border" : 0,
					"clickthrough" : 0,
					"enablehscroll" : 0,
					"enablevscroll" : 0,
					"id" : "obj-6",
					"lockeddragscroll" : 0,
					"maxclass" : "newobj",
					"numinlets" : 3,
					"numoutlets" : 4,
					"offset" : [ 0.0, 0.0 ],
					"outlettype" : [ "signal", "signal", "", "" ],
					"patching_rect" : [ 1199.0, 1340.0, 403.0, 196.0 ],
					"presentation" : 1,
					"presentation_rect" : [ 543.0, 560.0, 403.0, 179.0 ],
					"saved_attribute_attributes" : 					{
						"valueof" : 						{
							"parameter_invisible" : 1,
							"parameter_longname" : "amxd~",
							"parameter_shortname" : "amxd~",
							"parameter_type" : 3
						}

					}
,
					"saved_object_attributes" : 					{
						"active" : 0,
						"annotation_name" : "",
						"parameter_enable" : 1,
						"patchername" : "ChamberVerb.amxd",
						"patchername_fallback" : "C74:/packages/Max for Live/patchers/Max Audio Effect/Chamberverb/ChamberVerb.amxd"
					}
,
					"snapshot" : 					{
						"filetype" : "C74Snapshot",
						"version" : 2,
						"minorversion" : 0,
						"name" : "snapshotlist",
						"origin" : "max~",
						"type" : "list",
						"subtype" : "Undefined",
						"embed" : 1,
						"snapshot" : 						{
							"name" : "ChamberVerb.amxd",
							"origname" : "C74:/packages/Max for Live/patchers/Max Audio Effect/Chamberverb/ChamberVerb.amxd",
							"valuedictionary" : 							{
								"parameter_values" : 								{
									"1_delay" : 49.599998,
									"1_feedback" : 75.0,
									"2_delay" : 34.650002,
									"2_feedback" : 72.0,
									"3_delay" : 24.200001,
									"3_feedback" : 69.0,
									"45_delay" : 17.799999,
									"45_feedback" : 64.0,
									"45_moddepth" : 0.0,
									"45_modfreq" : 0.0,
									"67_delay" : 10.8,
									"67_feedback" : 41.0,
									"filter_cutoff" : 256.692902,
									"live.toggle" : 0.0,
									"wet_dry" : 6.0
								}

							}

						}
,
						"snapshotlist" : 						{
							"current_snapshot" : 0,
							"entries" : [ 								{
									"filetype" : "C74Snapshot",
									"version" : 2,
									"minorversion" : 0,
									"name" : "ChamberVerb.amxd",
									"origin" : "ChamberVerb.amxd",
									"type" : "amxd",
									"subtype" : "Undefined",
									"embed" : 0,
									"snapshot" : 									{
										"name" : "ChamberVerb.amxd",
										"origname" : "C74:/packages/Max for Live/patchers/Max Audio Effect/Chamberverb/ChamberVerb.amxd",
										"valuedictionary" : 										{
											"parameter_values" : 											{
												"1_delay" : 49.599998,
												"1_feedback" : 75.0,
												"2_delay" : 34.650002,
												"2_feedback" : 72.0,
												"3_delay" : 24.200001,
												"3_feedback" : 69.0,
												"45_delay" : 17.799999,
												"45_feedback" : 64.0,
												"45_moddepth" : 0.0,
												"45_modfreq" : 0.0,
												"67_delay" : 10.8,
												"67_feedback" : 41.0,
												"filter_cutoff" : 256.692902,
												"live.toggle" : 0.0,
												"wet_dry" : 6.0
											}

										}

									}
,
									"fileref" : 									{
										"name" : "ChamberVerb.amxd",
										"filename" : "ChamberVerb.amxd.maxsnap",
										"filepath" : "~/Documents/Max 7/Snapshots",
										"filepos" : -1,
										"snapshotfileid" : "a93bcb4e0c1ffff7ffbb3dac882d34ac"
									}

								}
 ]
						}

					}
,
					"style" : "",
					"text" : "amxd~ ChamberVerb.amxd",
					"varname" : "amxd~",
					"viewvisibility" : 1
				}

			}
, 			{
				"box" : 				{
					"id" : "obj-4",
					"maxclass" : "newobj",
					"numinlets" : 0,
					"numoutlets" : 1,
					"outlettype" : [ "" ],
					"patching_rect" : [ 638.0, 600.0, 43.0, 22.0 ],
					"style" : "",
					"text" : "r flash"
				}

			}
, 			{
				"box" : 				{
					"id" : "obj-3",
					"maxclass" : "newobj",
					"numinlets" : 1,
					"numoutlets" : 0,
					"patching_rect" : [ 188.0, 175.0, 45.0, 22.0 ],
					"style" : "",
					"text" : "s flash"
				}

			}
, 			{
				"box" : 				{
					"id" : "obj-33",
					"maxclass" : "message",
					"numinlets" : 2,
					"numoutlets" : 1,
					"outlettype" : [ "" ],
					"patching_rect" : [ 324.0, 1082.0, 90.0, 22.0 ],
					"style" : "messageGold",
					"text" : "storagewindow"
				}

			}
, 			{
				"box" : 				{
					"id" : "obj-34",
					"maxclass" : "message",
					"numinlets" : 2,
					"numoutlets" : 1,
					"outlettype" : [ "" ],
					"patching_rect" : [ 241.0, 1082.0, 78.0, 22.0 ],
					"style" : "messageGold",
					"text" : "clientwindow"
				}

			}
, 			{
				"box" : 				{
					"id" : "obj-32",
					"maxclass" : "newobj",
					"numinlets" : 1,
					"numoutlets" : 4,
					"outlettype" : [ "", "", "", "" ],
					"patching_rect" : [ 206.0, 1173.0, 158.0, 22.0 ],
					"restore" : 					{
						"amxd~" : [ 							{
								"filetype" : "C74Snapshot",
								"version" : 2,
								"minorversion" : 0,
								"name" : "ChamberVerb.amxd",
								"origin" : "ChamberVerb.amxd",
								"type" : "amxd",
								"subtype" : "Undefined",
								"embed" : 1,
								"snapshot" : 								{
									"name" : "ChamberVerb.amxd",
									"origname" : "C74:/packages/Max for Live/patchers/Max Audio Effect/Chamberverb/ChamberVerb.amxd",
									"valuedictionary" : 									{
										"parameter_values" : 										{
											"1_delay" : 49.599998,
											"1_feedback" : 75.0,
											"2_delay" : 34.650002,
											"2_feedback" : 72.0,
											"3_delay" : 24.200001,
											"3_feedback" : 69.0,
											"45_delay" : 17.799999,
											"45_feedback" : 64.0,
											"45_moddepth" : 0.0,
											"45_modfreq" : 0.0,
											"67_delay" : 10.8,
											"67_feedback" : 41.0,
											"filter_cutoff" : 256.692902,
											"live.toggle" : 0.0,
											"wet_dry" : 6.0
										}

									}

								}

							}
 ],
						"lfo00" : [ 29.0 ],
						"lfo01" : [ 3.0 ],
						"lfo02" : [ 75.0 ],
						"lfo03" : [ 127.0 ],
						"live.gain~" : [ -27.223972 ],
						"patchbay" : [ 0, 2, 1, 0, 4, 1, 0, 6, 1, 1, 1, 1 ],
						"tempo" : [ 0.160836 ]
					}
,
					"style" : "",
					"text" : "autopattr pulses @greedy 1",
					"varname" : "pulses[1]"
				}

			}
, 			{
				"box" : 				{
					"autorestore" : "pulses.json",
					"id" : "obj-31",
					"maxclass" : "newobj",
					"numinlets" : 1,
					"numoutlets" : 1,
					"outlettype" : [ "" ],
					"patching_rect" : [ 206.0, 1142.0, 113.0, 22.0 ],
					"saved_object_attributes" : 					{
						"client_rect" : [ 10, 59, 650, 299 ],
						"parameter_enable" : 0,
						"storage_rect" : [ 583, 69, 1034, 197 ]
					}
,
					"style" : "",
					"text" : "pattrstorage pulses",
					"varname" : "pulses"
				}

			}
, 			{
				"box" : 				{
					"active1" : [ 0.870588, 0.415686, 0.062745, 1.0 ],
					"bubblesize" : 32,
					"id" : "obj-19",
					"maxclass" : "preset",
					"numinlets" : 1,
					"numoutlets" : 4,
					"outlettype" : [ "preset", "int", "preset", "int" ],
					"patching_rect" : [ 416.0, 716.0, 100.0, 40.0 ],
					"pattrstorage" : "pulses",
					"presentation" : 1,
					"presentation_rect" : [ 226.0, 416.0, 223.0, 192.0 ],
					"stored1" : [ 0.572549, 0.27451, 0.027451, 1.0 ],
					"style" : ""
				}

			}
, 			{
				"box" : 				{
					"fontface" : 1,
					"id" : "obj-152",
					"maxclass" : "comment",
					"numinlets" : 1,
					"numoutlets" : 0,
					"patching_rect" : [ 353.0, 593.0, 65.0, 20.0 ],
					"presentation" : 1,
					"presentation_rect" : [ 165.0, 316.0, 54.0, 20.0 ],
					"style" : "",
					"text" : "OSC 03"
				}

			}
, 			{
				"box" : 				{
					"id" : "obj-153",
					"maxclass" : "comment",
					"numinlets" : 1,
					"numoutlets" : 0,
					"patching_rect" : [ 353.0, 640.0, 65.0, 20.0 ],
					"presentation" : 1,
					"presentation_rect" : [ 165.0, 373.0, 54.0, 20.0 ],
					"style" : "",
					"text" : "pw"
				}

			}
, 			{
				"box" : 				{
					"id" : "obj-154",
					"maxclass" : "comment",
					"numinlets" : 1,
					"numoutlets" : 0,
					"patching_rect" : [ 353.0, 615.0, 65.0, 20.0 ],
					"presentation" : 1,
					"presentation_rect" : [ 165.0, 338.0, 54.0, 20.0 ],
					"style" : "",
					"text" : "freq"
				}

			}
, 			{
				"box" : 				{
					"fontface" : 1,
					"id" : "obj-149",
					"maxclass" : "comment",
					"numinlets" : 1,
					"numoutlets" : 0,
					"patching_rect" : [ 353.0, 520.0, 65.0, 20.0 ],
					"presentation" : 1,
					"presentation_rect" : [ 164.5, 230.0, 54.0, 20.0 ],
					"style" : "",
					"text" : "OSC 02"
				}

			}
, 			{
				"box" : 				{
					"id" : "obj-150",
					"maxclass" : "comment",
					"numinlets" : 1,
					"numoutlets" : 0,
					"patching_rect" : [ 353.0, 567.0, 65.0, 20.0 ],
					"presentation" : 1,
					"presentation_rect" : [ 164.5, 287.0, 54.0, 20.0 ],
					"style" : "",
					"text" : "pw"
				}

			}
, 			{
				"box" : 				{
					"id" : "obj-151",
					"maxclass" : "comment",
					"numinlets" : 1,
					"numoutlets" : 0,
					"patching_rect" : [ 353.0, 542.0, 65.0, 20.0 ],
					"presentation" : 1,
					"presentation_rect" : [ 164.5, 252.0, 54.0, 20.0 ],
					"style" : "",
					"text" : "freq"
				}

			}
, 			{
				"box" : 				{
					"fontface" : 1,
					"id" : "obj-145",
					"maxclass" : "comment",
					"numinlets" : 1,
					"numoutlets" : 0,
					"patching_rect" : [ 353.0, 450.0, 65.0, 20.0 ],
					"presentation" : 1,
					"presentation_rect" : [ 164.5, 147.0, 54.0, 20.0 ],
					"style" : "",
					"text" : "OSC 01"
				}

			}
, 			{
				"box" : 				{
					"id" : "obj-146",
					"maxclass" : "comment",
					"numinlets" : 1,
					"numoutlets" : 0,
					"patching_rect" : [ 353.0, 497.0, 65.0, 20.0 ],
					"presentation" : 1,
					"presentation_rect" : [ 164.5, 204.0, 54.0, 20.0 ],
					"style" : "",
					"text" : "pw"
				}

			}
, 			{
				"box" : 				{
					"id" : "obj-148",
					"maxclass" : "comment",
					"numinlets" : 1,
					"numoutlets" : 0,
					"patching_rect" : [ 353.0, 472.0, 65.0, 20.0 ],
					"presentation" : 1,
					"presentation_rect" : [ 164.5, 169.0, 54.0, 20.0 ],
					"style" : "",
					"text" : "freq"
				}

			}
, 			{
				"box" : 				{
					"fontface" : 1,
					"id" : "obj-134",
					"maxclass" : "comment",
					"numinlets" : 1,
					"numoutlets" : 0,
					"patching_rect" : [ 353.0, 380.0, 65.0, 20.0 ],
					"presentation" : 1,
					"presentation_rect" : [ 164.5, 66.0, 54.0, 20.0 ],
					"style" : "",
					"text" : "OSC 00"
				}

			}
, 			{
				"box" : 				{
					"id" : "obj-131",
					"maxclass" : "comment",
					"numinlets" : 1,
					"numoutlets" : 0,
					"patching_rect" : [ 353.0, 431.0, 65.0, 20.0 ],
					"presentation" : 1,
					"presentation_rect" : [ 164.5, 123.0, 54.0, 20.0 ],
					"style" : "",
					"text" : "pw"
				}

			}
, 			{
				"box" : 				{
					"id" : "obj-130",
					"maxclass" : "comment",
					"numinlets" : 1,
					"numoutlets" : 0,
					"patching_rect" : [ 353.0, 406.0, 65.0, 20.0 ],
					"presentation" : 1,
					"presentation_rect" : [ 164.5, 88.0, 54.0, 20.0 ],
					"style" : "",
					"text" : "freq"
				}

			}
, 			{
				"box" : 				{
					"id" : "obj-127",
					"maxclass" : "newobj",
					"numinlets" : 3,
					"numoutlets" : 1,
					"outlettype" : [ "signal" ],
					"patching_rect" : [ 697.0, 536.0, 53.0, 22.0 ],
					"style" : "",
					"text" : "rect~ 11"
				}

			}
, 			{
				"box" : 				{
					"id" : "obj-123",
					"maxclass" : "newobj",
					"numinlets" : 3,
					"numoutlets" : 1,
					"outlettype" : [ "signal" ],
					"patching_rect" : [ 642.0, 536.0, 53.0, 22.0 ],
					"style" : "",
					"text" : "rect~ 11"
				}

			}
, 			{
				"box" : 				{
					"bgcolor" : [ 0.462745, 0.470588, 0.490196, 1.0 ],
					"color" : [ 0.870588, 0.415686, 0.062745, 1.0 ],
					"id" : "obj-114",
					"maxclass" : "ezdac~",
					"numinlets" : 2,
					"numoutlets" : 0,
					"patching_rect" : [ 1199.0, 1550.0, 45.0, 45.0 ],
					"presentation" : 1,
					"presentation_rect" : [ 51.0, 509.5, 45.0, 45.0 ],
					"style" : ""
				}

			}
, 			{
				"box" : 				{
					"bgmode" : 0,
					"border" : 0,
					"clickthrough" : 0,
					"enablehscroll" : 0,
					"enablevscroll" : 0,
					"id" : "obj-104",
					"lockeddragscroll" : 0,
					"maxclass" : "bpatcher",
					"name" : "pulse~.maxpat",
					"numinlets" : 3,
					"numoutlets" : 2,
					"offset" : [ 0.0, 0.0 ],
					"outlettype" : [ "signal", "signal" ],
					"patching_rect" : [ 678.0, 675.0, 93.0, 58.0 ],
					"presentation" : 1,
					"presentation_rect" : [ 471.0, 22.0, 367.0, 124.0 ],
					"varname" : "ch00",
					"viewvisibility" : 1
				}

			}
, 			{
				"box" : 				{
					"id" : "obj-55",
					"maxclass" : "newobj",
					"numinlets" : 4,
					"numoutlets" : 9,
					"outlettype" : [ "signal", "signal", "signal", "signal", "signal", "signal", "signal", "signal", "list" ],
					"patching_rect" : [ 531.0, 600.0, 103.0, 22.0 ],
					"style" : "",
					"text" : "matrix~ 4 8"
				}

			}
, 			{
				"box" : 				{
					"color" : [ 0.870588, 0.415686, 0.062745, 1.0 ],
					"columns" : 4,
					"id" : "obj-51",
					"maxclass" : "matrixctrl",
					"numinlets" : 1,
					"numoutlets" : 2,
					"outlettype" : [ "list", "list" ],
					"parameter_enable" : 0,
					"patching_rect" : [ 431.0, 440.5, 60.0, 129.0 ],
					"presentation" : 1,
					"presentation_rect" : [ 226.0, 74.0, 223.0, 340.0 ],
					"rows" : 8,
					"style" : "",
					"varname" : "patchbay"
				}

			}
, 			{
				"box" : 				{
					"id" : "obj-30",
					"maxclass" : "newobj",
					"numinlets" : 3,
					"numoutlets" : 1,
					"outlettype" : [ "signal" ],
					"patching_rect" : [ 587.0, 536.0, 53.0, 22.0 ],
					"style" : "",
					"text" : "rect~ 11"
				}

			}
, 			{
				"box" : 				{
					"id" : "obj-27",
					"maxclass" : "newobj",
					"numinlets" : 3,
					"numoutlets" : 1,
					"outlettype" : [ "signal" ],
					"patching_rect" : [ 532.0, 536.0, 48.0, 22.0 ],
					"style" : "",
					"text" : "rect~ 5"
				}

			}
, 			{
				"box" : 				{
					"id" : "obj-20",
					"maxclass" : "comment",
					"numinlets" : 1,
					"numoutlets" : 0,
					"patching_rect" : [ 1167.5, 203.0, 130.0, 20.0 ],
					"presentation" : 1,
					"presentation_rect" : [ 14.5, 408.0, 130.0, 20.0 ],
					"style" : "",
					"text" : "PULSE WAVE"
				}

			}
, 			{
				"box" : 				{
					"id" : "obj-17",
					"maxclass" : "comment",
					"numinlets" : 1,
					"numoutlets" : 0,
					"patching_rect" : [ 1214.5, 225.0, 83.0, 20.0 ],
					"presentation" : 1,
					"presentation_rect" : [ 69.5, 465.0, 83.0, 20.0 ],
					"style" : "",
					"text" : "line thickness"
				}

			}
, 			{
				"box" : 				{
					"id" : "obj-12",
					"maxclass" : "comment",
					"numinlets" : 1,
					"numoutlets" : 0,
					"patching_rect" : [ 1167.5, 225.0, 45.0, 20.0 ],
					"presentation" : 1,
					"presentation_rect" : [ 69.5, 439.0, 45.0, 20.0 ],
					"style" : "",
					"text" : "speed"
				}

			}
, 			{
				"box" : 				{
					"fontface" : 1,
					"id" : "obj-10",
					"maxclass" : "comment",
					"numinlets" : 1,
					"numoutlets" : 0,
					"patching_rect" : [ 789.5, 22.0, 127.0, 20.0 ],
					"presentation" : 1,
					"presentation_rect" : [ 9.5, 84.0, 127.0, 20.0 ],
					"style" : "",
					"text" : "START POEM",
					"textjustification" : 1
				}

			}
, 			{
				"box" : 				{
					"fontface" : 1,
					"id" : "obj-9",
					"maxclass" : "comment",
					"numinlets" : 1,
					"numoutlets" : 0,
					"patching_rect" : [ 991.5, 22.0, 127.0, 20.0 ],
					"presentation" : 1,
					"presentation_rect" : [ 9.5, 28.0, 127.0, 20.0 ],
					"style" : "",
					"text" : "START RENDERING",
					"textjustification" : 1
				}

			}
, 			{
				"box" : 				{
					"id" : "obj-49",
					"maxclass" : "message",
					"numinlets" : 2,
					"numoutlets" : 1,
					"outlettype" : [ "" ],
					"patching_rect" : [ 904.0, 94.0, 72.0, 22.0 ],
					"style" : "",
					"text" : "fullscreen 1"
				}

			}
, 			{
				"box" : 				{
					"id" : "obj-46",
					"maxclass" : "button",
					"numinlets" : 1,
					"numoutlets" : 1,
					"outlettype" : [ "bang" ],
					"patching_rect" : [ 841.0, 52.0, 24.0, 24.0 ],
					"presentation" : 1,
					"presentation_rect" : [ 61.0, 119.0, 24.0, 24.0 ],
					"style" : ""
				}

			}
, 			{
				"box" : 				{
					"id" : "obj-42",
					"maxclass" : "message",
					"numinlets" : 2,
					"numoutlets" : 1,
					"outlettype" : [ "" ],
					"patching_rect" : [ 766.0, 254.0, 29.5, 22.0 ],
					"style" : "",
					"text" : "0"
				}

			}
, 			{
				"box" : 				{
					"id" : "obj-28",
					"linecount" : 2,
					"maxclass" : "message",
					"numinlets" : 2,
					"numoutlets" : 1,
					"outlettype" : [ "" ],
					"patching_rect" : [ 949.0, 169.0, 75.0, 36.0 ],
					"style" : "",
					"text" : "erase_color $5 $5 $5 1."
				}

			}
, 			{
				"box" : 				{
					"id" : "obj-26",
					"maxclass" : "message",
					"numinlets" : 2,
					"numoutlets" : 1,
					"outlettype" : [ "" ],
					"patching_rect" : [ 1062.0, 250.0, 63.0, 22.0 ],
					"style" : "",
					"text" : "enable $5"
				}

			}
, 			{
				"box" : 				{
					"id" : "obj-15",
					"ignoreclick" : 1,
					"maxclass" : "toggle",
					"numinlets" : 1,
					"numoutlets" : 1,
					"outlettype" : [ "int" ],
					"parameter_enable" : 0,
					"patching_rect" : [ 766.0, 291.0, 24.0, 24.0 ],
					"presentation" : 1,
					"presentation_rect" : [ 61.0, 171.0, 24.0, 24.0 ],
					"style" : ""
				}

			}
, 			{
				"box" : 				{
					"id" : "obj-5",
					"maxclass" : "newobj",
					"numinlets" : 2,
					"numoutlets" : 1,
					"outlettype" : [ "" ],
					"patching_rect" : [ 765.0, 388.0, 41.0, 22.0 ],
					"style" : "",
					"text" : "gate"
				}

			}
, 			{
				"box" : 				{
					"id" : "obj-1",
					"maxclass" : "newobj",
					"numinlets" : 1,
					"numoutlets" : 1,
					"outlettype" : [ "" ],
					"patching_rect" : [ 985.5, 289.0, 129.0, 22.0 ],
					"style" : "",
					"text" : "loadmess font Aharoni"
				}

			}
, 			{
				"box" : 				{
					"id" : "obj-147",
					"maxclass" : "newobj",
					"numinlets" : 2,
					"numoutlets" : 2,
					"outlettype" : [ "bang", "" ],
					"patching_rect" : [ 765.0, 218.0, 36.0, 22.0 ],
					"style" : "",
					"text" : "sel 1"
				}

			}
, 			{
				"box" : 				{
					"id" : "obj-144",
					"maxclass" : "message",
					"numinlets" : 2,
					"numoutlets" : 1,
					"outlettype" : [ "" ],
					"patching_rect" : [ 800.0, 289.0, 29.5, 22.0 ],
					"style" : "",
					"text" : "$4"
				}

			}
, 			{
				"box" : 				{
					"id" : "obj-142",
					"maxclass" : "newobj",
					"numinlets" : 1,
					"numoutlets" : 4,
					"outlettype" : [ "bang", "", "", "" ],
					"patching_rect" : [ 841.0, 250.0, 50.5, 22.0 ],
					"style" : "",
					"text" : "t b l l l"
				}

			}
, 			{
				"box" : 				{
					"id" : "obj-138",
					"maxclass" : "newobj",
					"numinlets" : 2,
					"numoutlets" : 1,
					"outlettype" : [ "bang" ],
					"patching_rect" : [ 787.0, 356.0, 63.0, 22.0 ],
					"style" : "",
					"text" : "delay 500"
				}

			}
, 			{
				"box" : 				{
					"id" : "obj-137",
					"ignoreclick" : 1,
					"maxclass" : "button",
					"numinlets" : 1,
					"numoutlets" : 1,
					"outlettype" : [ "bang" ],
					"patching_rect" : [ 841.0, 113.0, 24.0, 24.0 ],
					"presentation" : 1,
					"presentation_rect" : [ 61.0, 145.0, 24.0, 24.0 ],
					"style" : ""
				}

			}
, 			{
				"box" : 				{
					"id" : "obj-132",
					"maxclass" : "toggle",
					"numinlets" : 1,
					"numoutlets" : 1,
					"outlettype" : [ "int" ],
					"parameter_enable" : 0,
					"patching_rect" : [ 409.0, 97.0, 24.0, 24.0 ],
					"presentation" : 1,
					"presentation_rect" : [ 61.0, 236.0, 24.0, 24.0 ],
					"style" : ""
				}

			}
, 			{
				"box" : 				{
					"id" : "obj-129",
					"maxclass" : "newobj",
					"numinlets" : 5,
					"numoutlets" : 4,
					"outlettype" : [ "int", "", "", "int" ],
					"patching_rect" : [ 841.0, 169.0, 77.0, 22.0 ],
					"style" : "",
					"text" : "counter 1 10"
				}

			}
, 			{
				"box" : 				{
					"coll_data" : 					{
						"count" : 10,
						"data" : [ 							{
								"key" : 1,
								"value" : [ "THE LIGHT", -0.5, 0.3, 2000, 0 ]
							}
, 							{
								"key" : 2,
								"value" : [ "IS A", 0.6, -0.1, 2000, 0 ]
							}
, 							{
								"key" : 3,
								"value" : [ " ", 0.2, -0.5, 2000, 1 ]
							}
, 							{
								"key" : 4,
								"value" : [ "CONTINUALLY", -0.5, 0.3, 2000, 0 ]
							}
, 							{
								"key" : 5,
								"value" : [ "SLOWER AND", 0.6, -0.1, 2000, 0 ]
							}
, 							{
								"key" : 6,
								"value" : [ "SLOWER", 0.2, -0.5, 2000, 0 ]
							}
, 							{
								"key" : 7,
								"value" : [ "U THINK IT", -0.5, 0.3, 2000, 0 ]
							}
, 							{
								"key" : 8,
								"value" : [ "IS ABOUT TO", 0.6, -0.1, 2000, 0 ]
							}
, 							{
								"key" : 9,
								"value" : [ "STOP", 0.2, -0.5, 500, 0 ]
							}
, 							{
								"key" : 10,
								"value" : [ " ", 0.0, 0.0, 1000, 0 ]
							}
 ]
					}
,
					"id" : "obj-124",
					"maxclass" : "newobj",
					"numinlets" : 1,
					"numoutlets" : 4,
					"outlettype" : [ "", "", "", "" ],
					"patching_rect" : [ 841.0, 218.0, 57.0, 22.0 ],
					"saved_object_attributes" : 					{
						"embed" : 1
					}
,
					"style" : "",
					"text" : "coll texts"
				}

			}
, 			{
				"box" : 				{
					"id" : "obj-117",
					"maxclass" : "message",
					"numinlets" : 2,
					"numoutlets" : 1,
					"outlettype" : [ "" ],
					"patching_rect" : [ 841.0, 289.0, 141.0, 22.0 ],
					"style" : "",
					"text" : "text $1, position $2 $3 0."
				}

			}
, 			{
				"box" : 				{
					"id" : "obj-109",
					"maxclass" : "newobj",
					"numinlets" : 1,
					"numoutlets" : 2,
					"outlettype" : [ "jit_matrix", "" ],
					"patching_rect" : [ 841.0, 320.0, 255.0, 22.0 ],
					"style" : "",
					"text" : "jit.gl.text light @fontsize 100 @color 1. 1. 1. 1."
				}

			}
, 			{
				"box" : 				{
					"id" : "obj-108",
					"maxclass" : "number",
					"numinlets" : 1,
					"numoutlets" : 2,
					"outlettype" : [ "", "bang" ],
					"parameter_enable" : 0,
					"patching_rect" : [ 1167.5, 250.0, 45.0, 22.0 ],
					"presentation" : 1,
					"presentation_rect" : [ 14.5, 438.0, 50.0, 22.0 ],
					"style" : ""
				}

			}
, 			{
				"box" : 				{
					"id" : "obj-105",
					"maxclass" : "message",
					"numinlets" : 2,
					"numoutlets" : 1,
					"outlettype" : [ "" ],
					"patching_rect" : [ 1067.0, 94.0, 37.0, 22.0 ],
					"style" : "",
					"text" : "reset"
				}

			}
, 			{
				"box" : 				{
					"id" : "obj-102",
					"maxclass" : "newobj",
					"numinlets" : 1,
					"numoutlets" : 2,
					"outlettype" : [ "", "" ],
					"patching_rect" : [ 1067.0, 126.0, 71.0, 22.0 ],
					"style" : "",
					"text" : "jit.gl.handle"
				}

			}
, 			{
				"box" : 				{
					"id" : "obj-92",
					"maxclass" : "number",
					"numinlets" : 1,
					"numoutlets" : 2,
					"outlettype" : [ "", "bang" ],
					"parameter_enable" : 0,
					"patching_rect" : [ 1215.5, 250.0, 50.0, 22.0 ],
					"presentation" : 1,
					"presentation_rect" : [ 14.5, 464.0, 50.0, 22.0 ],
					"style" : ""
				}

			}
, 			{
				"box" : 				{
					"id" : "obj-88",
					"maxclass" : "toggle",
					"numinlets" : 1,
					"numoutlets" : 1,
					"outlettype" : [ "int" ],
					"parameter_enable" : 0,
					"patching_rect" : [ 1043.0, 52.0, 24.0, 24.0 ],
					"presentation" : 1,
					"presentation_rect" : [ 61.0, 53.0, 24.0, 24.0 ],
					"style" : ""
				}

			}
, 			{
				"box" : 				{
					"id" : "obj-86",
					"linecount" : 2,
					"maxclass" : "newobj",
					"numinlets" : 1,
					"numoutlets" : 3,
					"outlettype" : [ "", "bang", "" ],
					"patching_rect" : [ 1043.0, 160.0, 172.0, 36.0 ],
					"style" : "",
					"text" : "jit.world light @auto_handle 0 @erase_color 0. 0. 0. 1."
				}

			}
, 			{
				"box" : 				{
					"id" : "obj-85",
					"maxclass" : "newobj",
					"numinlets" : 4,
					"numoutlets" : 0,
					"patcher" : 					{
						"fileversion" : 1,
						"appversion" : 						{
							"major" : 7,
							"minor" : 3,
							"revision" : 3,
							"architecture" : "x64",
							"modernui" : 1
						}
,
						"rect" : [ 342.0, 293.0, 640.0, 480.0 ],
						"bglocked" : 0,
						"openinpresentation" : 0,
						"default_fontsize" : 12.0,
						"default_fontface" : 0,
						"default_fontname" : "Arial",
						"gridonopen" : 1,
						"gridsize" : [ 15.0, 15.0 ],
						"gridsnaponopen" : 1,
						"objectsnaponopen" : 1,
						"statusbarvisible" : 2,
						"toolbarvisible" : 1,
						"lefttoolbarpinned" : 0,
						"toptoolbarpinned" : 0,
						"righttoolbarpinned" : 0,
						"bottomtoolbarpinned" : 0,
						"toolbars_unpinned_last_save" : 0,
						"tallnewobj" : 0,
						"boxanimatetime" : 200,
						"enablehscroll" : 1,
						"enablevscroll" : 1,
						"devicewidth" : 0.0,
						"description" : "",
						"digest" : "",
						"tags" : "",
						"style" : "",
						"subpatcher_template" : "",
						"boxes" : [ 							{
								"box" : 								{
									"comment" : "",
									"id" : "obj-5",
									"index" : 4,
									"maxclass" : "inlet",
									"numinlets" : 0,
									"numoutlets" : 1,
									"outlettype" : [ "" ],
									"patching_rect" : [ 437.0, 12.0, 30.0, 30.0 ],
									"style" : ""
								}

							}
, 							{
								"box" : 								{
									"format" : 6,
									"id" : "obj-13",
									"maxclass" : "flonum",
									"numinlets" : 1,
									"numoutlets" : 2,
									"outlettype" : [ "", "bang" ],
									"parameter_enable" : 0,
									"patching_rect" : [ 211.0, 76.0, 50.0, 22.0 ],
									"style" : ""
								}

							}
, 							{
								"box" : 								{
									"comment" : "",
									"id" : "obj-11",
									"index" : 2,
									"maxclass" : "inlet",
									"numinlets" : 0,
									"numoutlets" : 1,
									"outlettype" : [ "" ],
									"patching_rect" : [ 161.0, 5.0, 30.0, 30.0 ],
									"style" : ""
								}

							}
, 							{
								"box" : 								{
									"id" : "obj-19",
									"maxclass" : "newobj",
									"numinlets" : 2,
									"numoutlets" : 1,
									"outlettype" : [ "float" ],
									"patching_rect" : [ 161.0, 76.0, 34.0, 22.0 ],
									"style" : "",
									"text" : "/ 10."
								}

							}
, 							{
								"box" : 								{
									"id" : "obj-17",
									"maxclass" : "newobj",
									"numinlets" : 5,
									"numoutlets" : 4,
									"outlettype" : [ "int", "", "", "int" ],
									"patching_rect" : [ 161.0, 47.0, 77.0, 22.0 ],
									"style" : "",
									"text" : "counter 1 10"
								}

							}
, 							{
								"box" : 								{
									"comment" : "",
									"id" : "obj-9",
									"index" : 1,
									"maxclass" : "inlet",
									"numinlets" : 0,
									"numoutlets" : 1,
									"outlettype" : [ "bang" ],
									"patching_rect" : [ 15.0, 5.0, 30.0, 30.0 ],
									"style" : ""
								}

							}
, 							{
								"box" : 								{
									"comment" : "",
									"id" : "obj-8",
									"index" : 3,
									"maxclass" : "inlet",
									"numinlets" : 0,
									"numoutlets" : 1,
									"outlettype" : [ "" ],
									"patching_rect" : [ 240.0, 5.0, 30.0, 30.0 ],
									"style" : ""
								}

							}
, 							{
								"box" : 								{
									"id" : "obj-4",
									"linecount" : 3,
									"maxclass" : "newobj",
									"numinlets" : 2,
									"numoutlets" : 2,
									"outlettype" : [ "jit_matrix", "" ],
									"patching_rect" : [ 15.0, 124.0, 217.0, 50.0 ],
									"style" : "",
									"text" : "jit.expr @inputs 2 @expr ((norm[0]>in[1])&&(norm[0]<(in[1]+0.5))||(norm[0]<(in[1]-0.5)))*2-1"
								}

							}
, 							{
								"box" : 								{
									"id" : "obj-10",
									"maxclass" : "newobj",
									"numinlets" : 1,
									"numoutlets" : 2,
									"outlettype" : [ "jit_matrix", "" ],
									"patching_rect" : [ 15.0, 205.0, 262.0, 22.0 ],
									"style" : "",
									"text" : "jit.gl.graph light @circpoints 1 @color 0. 0. 0. 1."
								}

							}
, 							{
								"box" : 								{
									"id" : "obj-3",
									"maxclass" : "newobj",
									"numinlets" : 1,
									"numoutlets" : 2,
									"outlettype" : [ "jit_matrix", "" ],
									"patching_rect" : [ 15.0, 75.0, 138.0, 22.0 ],
									"style" : "",
									"text" : "jit.matrix 1 float32 256 1"
								}

							}
, 							{
								"box" : 								{
									"attr" : "line_width",
									"id" : "obj-7",
									"maxclass" : "attrui",
									"numinlets" : 1,
									"numoutlets" : 1,
									"outlettype" : [ "" ],
									"patching_rect" : [ 240.0, 152.0, 150.0, 22.0 ],
									"style" : ""
								}

							}
 ],
						"lines" : [ 							{
								"patchline" : 								{
									"destination" : [ "obj-17", 4 ],
									"disabled" : 0,
									"hidden" : 0,
									"order" : 0,
									"source" : [ "obj-11", 0 ]
								}

							}
, 							{
								"patchline" : 								{
									"destination" : [ "obj-19", 1 ],
									"disabled" : 0,
									"hidden" : 0,
									"order" : 1,
									"source" : [ "obj-11", 0 ]
								}

							}
, 							{
								"patchline" : 								{
									"destination" : [ "obj-19", 0 ],
									"disabled" : 0,
									"hidden" : 0,
									"source" : [ "obj-17", 0 ]
								}

							}
, 							{
								"patchline" : 								{
									"destination" : [ "obj-13", 0 ],
									"disabled" : 0,
									"hidden" : 0,
									"order" : 1,
									"source" : [ "obj-19", 0 ]
								}

							}
, 							{
								"patchline" : 								{
									"destination" : [ "obj-4", 1 ],
									"disabled" : 0,
									"hidden" : 0,
									"order" : 0,
									"source" : [ "obj-19", 0 ]
								}

							}
, 							{
								"patchline" : 								{
									"destination" : [ "obj-4", 0 ],
									"disabled" : 0,
									"hidden" : 0,
									"source" : [ "obj-3", 0 ]
								}

							}
, 							{
								"patchline" : 								{
									"destination" : [ "obj-10", 0 ],
									"disabled" : 0,
									"hidden" : 0,
									"source" : [ "obj-4", 0 ]
								}

							}
, 							{
								"patchline" : 								{
									"destination" : [ "obj-10", 0 ],
									"disabled" : 0,
									"hidden" : 0,
									"source" : [ "obj-5", 0 ]
								}

							}
, 							{
								"patchline" : 								{
									"destination" : [ "obj-10", 0 ],
									"disabled" : 0,
									"hidden" : 0,
									"source" : [ "obj-7", 0 ]
								}

							}
, 							{
								"patchline" : 								{
									"destination" : [ "obj-7", 0 ],
									"disabled" : 0,
									"hidden" : 0,
									"source" : [ "obj-8", 0 ]
								}

							}
, 							{
								"patchline" : 								{
									"destination" : [ "obj-17", 0 ],
									"disabled" : 0,
									"hidden" : 0,
									"order" : 0,
									"source" : [ "obj-9", 0 ]
								}

							}
, 							{
								"patchline" : 								{
									"destination" : [ "obj-3", 0 ],
									"disabled" : 0,
									"hidden" : 0,
									"order" : 1,
									"source" : [ "obj-9", 0 ]
								}

							}
 ]
					}
,
					"patching_rect" : [ 1119.5, 289.0, 163.0, 22.0 ],
					"saved_object_attributes" : 					{
						"description" : "",
						"digest" : "",
						"globalpatchername" : "",
						"style" : "",
						"tags" : ""
					}
,
					"style" : "",
					"text" : "p draw_pulse_wave"
				}

			}
, 			{
				"box" : 				{
					"id" : "obj-84",
					"maxclass" : "newobj",
					"numinlets" : 3,
					"numoutlets" : 0,
					"patcher" : 					{
						"fileversion" : 1,
						"appversion" : 						{
							"major" : 7,
							"minor" : 3,
							"revision" : 3,
							"architecture" : "x64",
							"modernui" : 1
						}
,
						"rect" : [ 67.0, 110.0, 640.0, 480.0 ],
						"bglocked" : 0,
						"openinpresentation" : 0,
						"default_fontsize" : 12.0,
						"default_fontface" : 0,
						"default_fontname" : "Arial",
						"gridonopen" : 1,
						"gridsize" : [ 15.0, 15.0 ],
						"gridsnaponopen" : 1,
						"objectsnaponopen" : 1,
						"statusbarvisible" : 2,
						"toolbarvisible" : 1,
						"lefttoolbarpinned" : 0,
						"toptoolbarpinned" : 0,
						"righttoolbarpinned" : 0,
						"bottomtoolbarpinned" : 0,
						"toolbars_unpinned_last_save" : 0,
						"tallnewobj" : 0,
						"boxanimatetime" : 200,
						"enablehscroll" : 1,
						"enablevscroll" : 1,
						"devicewidth" : 0.0,
						"description" : "",
						"digest" : "",
						"tags" : "",
						"style" : "",
						"subpatcher_template" : "",
						"visible" : 1,
						"boxes" : [ 							{
								"box" : 								{
									"id" : "obj-7",
									"maxclass" : "comment",
									"numinlets" : 1,
									"numoutlets" : 0,
									"patching_rect" : [ 331.0, 40.0, 56.0, 20.0 ],
									"style" : "",
									"text" : "enable"
								}

							}
, 							{
								"box" : 								{
									"comment" : "enable",
									"id" : "obj-10",
									"index" : 3,
									"maxclass" : "inlet",
									"numinlets" : 0,
									"numoutlets" : 1,
									"outlettype" : [ "int" ],
									"patching_rect" : [ 292.0, 40.0, 30.0, 30.0 ],
									"style" : ""
								}

							}
, 							{
								"box" : 								{
									"id" : "obj-93",
									"linecount" : 3,
									"maxclass" : "newobj",
									"numinlets" : 1,
									"numoutlets" : 2,
									"outlettype" : [ "jit_matrix", "" ],
									"patching_rect" : [ 91.0, 338.0, 123.0, 50.0 ],
									"style" : "",
									"text" : "jit.gl.videoplane light @position 0. 0. -0.05 @scale 5. 5. 1."
								}

							}
, 							{
								"box" : 								{
									"id" : "obj-5",
									"maxclass" : "comment",
									"numinlets" : 1,
									"numoutlets" : 0,
									"patching_rect" : [ 127.0, 40.0, 56.0, 20.0 ],
									"style" : "",
									"text" : "bang"
								}

							}
, 							{
								"box" : 								{
									"id" : "obj-3",
									"maxclass" : "comment",
									"numinlets" : 1,
									"numoutlets" : 0,
									"patching_rect" : [ 227.0, 40.0, 56.0, 20.0 ],
									"style" : "",
									"text" : "intensity"
								}

							}
, 							{
								"box" : 								{
									"id" : "obj-69",
									"maxclass" : "number",
									"numinlets" : 1,
									"numoutlets" : 2,
									"outlettype" : [ "", "bang" ],
									"parameter_enable" : 0,
									"patching_rect" : [ 91.0, 224.0, 50.0, 22.0 ],
									"style" : ""
								}

							}
, 							{
								"box" : 								{
									"id" : "obj-64",
									"maxclass" : "newobj",
									"numinlets" : 2,
									"numoutlets" : 1,
									"outlettype" : [ "float" ],
									"patching_rect" : [ 91.0, 196.0, 29.5, 22.0 ],
									"style" : "",
									"text" : "* 1."
								}

							}
, 							{
								"box" : 								{
									"id" : "obj-13",
									"maxclass" : "newobj",
									"numinlets" : 3,
									"numoutlets" : 1,
									"outlettype" : [ "" ],
									"patching_rect" : [ 91.0, 159.0, 62.0, 22.0 ],
									"style" : "",
									"text" : "clip 0 255"
								}

							}
, 							{
								"box" : 								{
									"id" : "obj-11",
									"maxclass" : "message",
									"numinlets" : 2,
									"numoutlets" : 1,
									"outlettype" : [ "" ],
									"patching_rect" : [ 91.0, 100.0, 67.0, 22.0 ],
									"style" : "",
									"text" : "510, 0 100"
								}

							}
, 							{
								"box" : 								{
									"id" : "obj-9",
									"maxclass" : "newobj",
									"numinlets" : 3,
									"numoutlets" : 2,
									"outlettype" : [ "", "" ],
									"patching_rect" : [ 91.0, 133.0, 49.0, 22.0 ],
									"style" : "",
									"text" : "line 0 5"
								}

							}
, 							{
								"box" : 								{
									"id" : "obj-8",
									"maxclass" : "button",
									"numinlets" : 1,
									"numoutlets" : 1,
									"outlettype" : [ "bang" ],
									"patching_rect" : [ 50.0, 238.0, 24.0, 24.0 ],
									"style" : ""
								}

							}
, 							{
								"box" : 								{
									"id" : "obj-4",
									"maxclass" : "message",
									"numinlets" : 2,
									"numoutlets" : 1,
									"outlettype" : [ "" ],
									"patching_rect" : [ 91.0, 257.0, 150.0, 22.0 ],
									"style" : "",
									"text" : "setcell 0 0 val $1 $1 $1 $1"
								}

							}
, 							{
								"box" : 								{
									"id" : "obj-2",
									"maxclass" : "newobj",
									"numinlets" : 1,
									"numoutlets" : 2,
									"outlettype" : [ "jit_matrix", "" ],
									"patching_rect" : [ 91.0, 296.0, 139.0, 22.0 ],
									"style" : "",
									"text" : "jit.matrix mtrx 4 char 1 1"
								}

							}
, 							{
								"box" : 								{
									"comment" : "bang",
									"id" : "obj-81",
									"index" : 1,
									"maxclass" : "inlet",
									"numinlets" : 0,
									"numoutlets" : 1,
									"outlettype" : [ "bang" ],
									"patching_rect" : [ 91.0, 40.0, 30.0, 30.0 ],
									"style" : ""
								}

							}
, 							{
								"box" : 								{
									"comment" : "intensity (0. - 1.)",
									"id" : "obj-82",
									"index" : 2,
									"maxclass" : "inlet",
									"numinlets" : 0,
									"numoutlets" : 1,
									"outlettype" : [ "" ],
									"patching_rect" : [ 188.0, 40.0, 30.0, 30.0 ],
									"style" : ""
								}

							}
, 							{
								"box" : 								{
									"attr" : "enable",
									"id" : "obj-6",
									"maxclass" : "attrui",
									"numinlets" : 1,
									"numoutlets" : 1,
									"outlettype" : [ "" ],
									"patching_rect" : [ 237.0, 338.0, 150.0, 22.0 ],
									"style" : ""
								}

							}
 ],
						"lines" : [ 							{
								"patchline" : 								{
									"destination" : [ "obj-6", 0 ],
									"disabled" : 0,
									"hidden" : 0,
									"source" : [ "obj-10", 0 ]
								}

							}
, 							{
								"patchline" : 								{
									"destination" : [ "obj-9", 0 ],
									"disabled" : 0,
									"hidden" : 0,
									"source" : [ "obj-11", 0 ]
								}

							}
, 							{
								"patchline" : 								{
									"destination" : [ "obj-64", 0 ],
									"disabled" : 0,
									"hidden" : 0,
									"source" : [ "obj-13", 0 ]
								}

							}
, 							{
								"patchline" : 								{
									"destination" : [ "obj-93", 0 ],
									"disabled" : 0,
									"hidden" : 0,
									"source" : [ "obj-2", 0 ]
								}

							}
, 							{
								"patchline" : 								{
									"destination" : [ "obj-2", 0 ],
									"disabled" : 0,
									"hidden" : 0,
									"source" : [ "obj-4", 0 ]
								}

							}
, 							{
								"patchline" : 								{
									"destination" : [ "obj-93", 0 ],
									"disabled" : 0,
									"hidden" : 0,
									"source" : [ "obj-6", 0 ]
								}

							}
, 							{
								"patchline" : 								{
									"destination" : [ "obj-69", 0 ],
									"disabled" : 0,
									"hidden" : 0,
									"order" : 0,
									"source" : [ "obj-64", 0 ]
								}

							}
, 							{
								"patchline" : 								{
									"destination" : [ "obj-8", 0 ],
									"disabled" : 0,
									"hidden" : 0,
									"order" : 1,
									"source" : [ "obj-64", 0 ]
								}

							}
, 							{
								"patchline" : 								{
									"destination" : [ "obj-4", 0 ],
									"disabled" : 0,
									"hidden" : 0,
									"source" : [ "obj-69", 0 ]
								}

							}
, 							{
								"patchline" : 								{
									"destination" : [ "obj-2", 0 ],
									"disabled" : 0,
									"hidden" : 0,
									"source" : [ "obj-8", 0 ]
								}

							}
, 							{
								"patchline" : 								{
									"destination" : [ "obj-11", 0 ],
									"disabled" : 0,
									"hidden" : 0,
									"source" : [ "obj-81", 0 ]
								}

							}
, 							{
								"patchline" : 								{
									"destination" : [ "obj-64", 1 ],
									"disabled" : 0,
									"hidden" : 0,
									"source" : [ "obj-82", 0 ]
								}

							}
, 							{
								"patchline" : 								{
									"destination" : [ "obj-13", 0 ],
									"disabled" : 0,
									"hidden" : 0,
									"source" : [ "obj-9", 0 ]
								}

							}
 ]
					}
,
					"patching_rect" : [ 242.499985, 175.0, 46.0, 22.0 ],
					"saved_object_attributes" : 					{
						"description" : "",
						"digest" : "",
						"globalpatchername" : "",
						"style" : "",
						"tags" : ""
					}
,
					"style" : "",
					"text" : "p flash"
				}

			}
, 			{
				"box" : 				{
					"color" : [ 0.843137, 0.701961, 0.301961, 1.0 ],
					"id" : "obj-80",
					"maxclass" : "newobj",
					"numinlets" : 1,
					"numoutlets" : 1,
					"outlettype" : [ "int" ],
					"patcher" : 					{
						"fileversion" : 1,
						"appversion" : 						{
							"major" : 7,
							"minor" : 3,
							"revision" : 3,
							"architecture" : "x64",
							"modernui" : 1
						}
,
						"rect" : [ 0.0, 0.0, 640.0, 480.0 ],
						"bglocked" : 0,
						"openinpresentation" : 0,
						"default_fontsize" : 12.0,
						"default_fontface" : 0,
						"default_fontname" : "Arial",
						"gridonopen" : 1,
						"gridsize" : [ 15.0, 15.0 ],
						"gridsnaponopen" : 1,
						"objectsnaponopen" : 1,
						"statusbarvisible" : 2,
						"toolbarvisible" : 1,
						"lefttoolbarpinned" : 0,
						"toptoolbarpinned" : 0,
						"righttoolbarpinned" : 0,
						"bottomtoolbarpinned" : 0,
						"toolbars_unpinned_last_save" : 0,
						"tallnewobj" : 0,
						"boxanimatetime" : 200,
						"enablehscroll" : 1,
						"enablevscroll" : 1,
						"devicewidth" : 0.0,
						"description" : "",
						"digest" : "",
						"tags" : "",
						"style" : "",
						"subpatcher_template" : "",
						"boxes" : [ 							{
								"box" : 								{
									"id" : "obj-77",
									"maxclass" : "newobj",
									"numinlets" : 2,
									"numoutlets" : 1,
									"outlettype" : [ "bang" ],
									"patching_rect" : [ 50.0, 107.050293, 65.0, 22.0 ],
									"style" : "",
									"text" : "metro 500"
								}

							}
, 							{
								"box" : 								{
									"id" : "obj-76",
									"maxclass" : "newobj",
									"numinlets" : 2,
									"numoutlets" : 1,
									"outlettype" : [ "int" ],
									"patching_rect" : [ 119.0, 134.050293, 32.0, 22.0 ],
									"style" : "",
									"text" : "* 10"
								}

							}
, 							{
								"box" : 								{
									"id" : "obj-73",
									"maxclass" : "newobj",
									"numinlets" : 5,
									"numoutlets" : 4,
									"outlettype" : [ "int", "", "", "int" ],
									"patching_rect" : [ 119.0, 107.050293, 77.0, 22.0 ],
									"style" : "",
									"text" : "counter 1 20"
								}

							}
, 							{
								"box" : 								{
									"comment" : "",
									"id" : "obj-78",
									"index" : 1,
									"maxclass" : "inlet",
									"numinlets" : 0,
									"numoutlets" : 1,
									"outlettype" : [ "int" ],
									"patching_rect" : [ 50.0, 40.0, 30.0, 30.0 ],
									"style" : ""
								}

							}
, 							{
								"box" : 								{
									"comment" : "",
									"id" : "obj-79",
									"index" : 1,
									"maxclass" : "outlet",
									"numinlets" : 1,
									"numoutlets" : 0,
									"patching_rect" : [ 119.0, 216.050293, 30.0, 30.0 ],
									"style" : ""
								}

							}
 ],
						"lines" : [ 							{
								"patchline" : 								{
									"destination" : [ "obj-76", 0 ],
									"disabled" : 0,
									"hidden" : 0,
									"source" : [ "obj-73", 0 ]
								}

							}
, 							{
								"patchline" : 								{
									"destination" : [ "obj-79", 0 ],
									"disabled" : 0,
									"hidden" : 0,
									"source" : [ "obj-76", 0 ]
								}

							}
, 							{
								"patchline" : 								{
									"destination" : [ "obj-73", 0 ],
									"disabled" : 0,
									"hidden" : 0,
									"source" : [ "obj-77", 0 ]
								}

							}
, 							{
								"patchline" : 								{
									"destination" : [ "obj-77", 0 ],
									"disabled" : 0,
									"hidden" : 0,
									"source" : [ "obj-78", 0 ]
								}

							}
 ]
					}
,
					"patching_rect" : [ 42.75, 58.0, 110.0, 22.0 ],
					"saved_object_attributes" : 					{
						"description" : "",
						"digest" : "",
						"globalpatchername" : "",
						"style" : "",
						"tags" : ""
					}
,
					"style" : "",
					"text" : "p DEBUG duration",
					"textcolor" : [ 1.0, 1.0, 1.0, 1.0 ]
				}

			}
, 			{
				"box" : 				{
					"id" : "obj-72",
					"maxclass" : "newobj",
					"numinlets" : 3,
					"numoutlets" : 1,
					"outlettype" : [ "" ],
					"patching_rect" : [ 255.999985, 129.0, 55.0, 22.0 ],
					"style" : "",
					"text" : "clip 0. 1."
				}

			}
, 			{
				"box" : 				{
					"id" : "obj-63",
					"maxclass" : "newobj",
					"numinlets" : 6,
					"numoutlets" : 1,
					"outlettype" : [ "" ],
					"patching_rect" : [ 255.999985, 97.0, 145.0, 22.0 ],
					"style" : "",
					"text" : "scale 50 1000 0.7 1. 1.01"
				}

			}
, 			{
				"box" : 				{
					"id" : "obj-16",
					"maxclass" : "toggle",
					"numinlets" : 1,
					"numoutlets" : 1,
					"outlettype" : [ "int" ],
					"parameter_enable" : 0,
					"patching_rect" : [ 188.0, 58.0, 24.0, 24.0 ],
					"presentation" : 1,
					"presentation_rect" : [ 61.0, 322.0, 24.0, 24.0 ],
					"style" : ""
				}

			}
, 			{
				"box" : 				{
					"id" : "obj-14",
					"maxclass" : "newobj",
					"numinlets" : 2,
					"numoutlets" : 1,
					"outlettype" : [ "bang" ],
					"patching_rect" : [ 188.0, 97.0, 58.0, 22.0 ],
					"style" : "",
					"text" : "metro 50"
				}

			}
, 			{
				"box" : 				{
					"angle" : 270.0,
					"background" : 1,
					"grad1" : [ 0.65098, 0.666667, 0.662745, 1.0 ],
					"grad2" : [ 0.65098, 0.666667, 0.662745, 1.0 ],
					"id" : "obj-24",
					"maxclass" : "panel",
					"mode" : 1,
					"numinlets" : 1,
					"numoutlets" : 0,
					"patching_rect" : [ 1161.0, 197.0, 175.0, 84.0 ],
					"presentation" : 1,
					"presentation_rect" : [ 5.5, 386.0, 151.0, 120.0 ],
					"proportion" : 0.39,
					"rounded" : 0,
					"style" : ""
				}

			}
 ],
		"lines" : [ 			{
				"patchline" : 				{
					"destination" : [ "obj-109", 0 ],
					"disabled" : 0,
					"hidden" : 0,
					"source" : [ "obj-1", 0 ]
				}

			}
, 			{
				"patchline" : 				{
					"destination" : [ "obj-86", 0 ],
					"disabled" : 0,
					"hidden" : 0,
					"source" : [ "obj-102", 0 ]
				}

			}
, 			{
				"patchline" : 				{
					"destination" : [ "obj-40", 1 ],
					"disabled" : 0,
					"hidden" : 0,
					"midpoints" : [ 761.5, 744.0, 1224.5, 744.0 ],
					"source" : [ "obj-104", 1 ]
				}

			}
, 			{
				"patchline" : 				{
					"destination" : [ "obj-40", 0 ],
					"disabled" : 0,
					"hidden" : 0,
					"midpoints" : [ 687.5, 744.0, 1195.5, 744.0 ],
					"source" : [ "obj-104", 0 ]
				}

			}
, 			{
				"patchline" : 				{
					"destination" : [ "obj-102", 0 ],
					"disabled" : 0,
					"hidden" : 0,
					"source" : [ "obj-105", 0 ]
				}

			}
, 			{
				"patchline" : 				{
					"destination" : [ "obj-85", 1 ],
					"disabled" : 0,
					"hidden" : 0,
					"source" : [ "obj-108", 0 ]
				}

			}
, 			{
				"patchline" : 				{
					"destination" : [ "obj-137", 0 ],
					"disabled" : 0,
					"hidden" : 0,
					"source" : [ "obj-11", 0 ]
				}

			}
, 			{
				"patchline" : 				{
					"destination" : [ "obj-109", 0 ],
					"disabled" : 0,
					"hidden" : 0,
					"source" : [ "obj-117", 0 ]
				}

			}
, 			{
				"patchline" : 				{
					"destination" : [ "obj-55", 2 ],
					"disabled" : 0,
					"hidden" : 0,
					"source" : [ "obj-123", 0 ]
				}

			}
, 			{
				"patchline" : 				{
					"destination" : [ "obj-142", 0 ],
					"disabled" : 0,
					"hidden" : 0,
					"source" : [ "obj-124", 0 ]
				}

			}
, 			{
				"patchline" : 				{
					"destination" : [ "obj-55", 3 ],
					"disabled" : 0,
					"hidden" : 0,
					"source" : [ "obj-127", 0 ]
				}

			}
, 			{
				"patchline" : 				{
					"destination" : [ "obj-124", 0 ],
					"disabled" : 0,
					"hidden" : 0,
					"source" : [ "obj-129", 0 ]
				}

			}
, 			{
				"patchline" : 				{
					"destination" : [ "obj-147", 0 ],
					"disabled" : 0,
					"hidden" : 0,
					"source" : [ "obj-129", 2 ]
				}

			}
, 			{
				"patchline" : 				{
					"destination" : [ "obj-84", 2 ],
					"disabled" : 0,
					"hidden" : 0,
					"midpoints" : [ 418.5, 162.0, 278.999985, 162.0 ],
					"source" : [ "obj-132", 0 ]
				}

			}
, 			{
				"patchline" : 				{
					"destination" : [ "obj-129", 0 ],
					"disabled" : 0,
					"hidden" : 0,
					"source" : [ "obj-137", 0 ]
				}

			}
, 			{
				"patchline" : 				{
					"destination" : [ "obj-5", 1 ],
					"disabled" : 0,
					"hidden" : 0,
					"source" : [ "obj-138", 0 ]
				}

			}
, 			{
				"patchline" : 				{
					"destination" : [ "obj-3", 0 ],
					"disabled" : 0,
					"hidden" : 0,
					"order" : 1,
					"source" : [ "obj-14", 0 ]
				}

			}
, 			{
				"patchline" : 				{
					"destination" : [ "obj-44", 0 ],
					"disabled" : 0,
					"hidden" : 0,
					"order" : 2,
					"source" : [ "obj-14", 0 ]
				}

			}
, 			{
				"patchline" : 				{
					"destination" : [ "obj-84", 0 ],
					"disabled" : 0,
					"hidden" : 0,
					"order" : 0,
					"source" : [ "obj-14", 0 ]
				}

			}
, 			{
				"patchline" : 				{
					"destination" : [ "obj-117", 0 ],
					"disabled" : 0,
					"hidden" : 0,
					"source" : [ "obj-142", 1 ]
				}

			}
, 			{
				"patchline" : 				{
					"destination" : [ "obj-138", 0 ],
					"disabled" : 0,
					"hidden" : 0,
					"midpoints" : [ 850.5, 273.0, 796.0, 273.0, 796.0, 321.0, 796.0, 321.0, 796.0, 339.0, 796.5, 339.0 ],
					"source" : [ "obj-142", 0 ]
				}

			}
, 			{
				"patchline" : 				{
					"destination" : [ "obj-144", 0 ],
					"disabled" : 0,
					"hidden" : 0,
					"order" : 1,
					"source" : [ "obj-142", 2 ]
				}

			}
, 			{
				"patchline" : 				{
					"destination" : [ "obj-26", 0 ],
					"disabled" : 0,
					"hidden" : 0,
					"order" : 0,
					"source" : [ "obj-142", 2 ]
				}

			}
, 			{
				"patchline" : 				{
					"destination" : [ "obj-28", 0 ],
					"disabled" : 0,
					"hidden" : 0,
					"source" : [ "obj-142", 3 ]
				}

			}
, 			{
				"patchline" : 				{
					"destination" : [ "obj-138", 1 ],
					"disabled" : 0,
					"hidden" : 0,
					"source" : [ "obj-144", 0 ]
				}

			}
, 			{
				"patchline" : 				{
					"destination" : [ "obj-42", 0 ],
					"disabled" : 0,
					"hidden" : 0,
					"source" : [ "obj-147", 0 ]
				}

			}
, 			{
				"patchline" : 				{
					"destination" : [ "obj-5", 0 ],
					"disabled" : 0,
					"hidden" : 0,
					"source" : [ "obj-15", 0 ]
				}

			}
, 			{
				"patchline" : 				{
					"destination" : [ "obj-14", 0 ],
					"disabled" : 0,
					"hidden" : 0,
					"order" : 0,
					"source" : [ "obj-16", 0 ]
				}

			}
, 			{
				"patchline" : 				{
					"destination" : [ "obj-80", 0 ],
					"disabled" : 0,
					"hidden" : 0,
					"order" : 1,
					"source" : [ "obj-16", 0 ]
				}

			}
, 			{
				"patchline" : 				{
					"destination" : [ "obj-30", 0 ],
					"disabled" : 0,
					"hidden" : 0,
					"source" : [ "obj-21", 0 ]
				}

			}
, 			{
				"patchline" : 				{
					"destination" : [ "obj-123", 0 ],
					"disabled" : 0,
					"hidden" : 0,
					"source" : [ "obj-22", 0 ]
				}

			}
, 			{
				"patchline" : 				{
					"destination" : [ "obj-127", 0 ],
					"disabled" : 0,
					"hidden" : 0,
					"source" : [ "obj-23", 0 ]
				}

			}
, 			{
				"patchline" : 				{
					"destination" : [ "obj-85", 3 ],
					"disabled" : 0,
					"hidden" : 0,
					"source" : [ "obj-26", 0 ]
				}

			}
, 			{
				"patchline" : 				{
					"destination" : [ "obj-55", 0 ],
					"disabled" : 0,
					"hidden" : 0,
					"source" : [ "obj-27", 0 ]
				}

			}
, 			{
				"patchline" : 				{
					"destination" : [ "obj-86", 0 ],
					"disabled" : 0,
					"hidden" : 0,
					"midpoints" : [ 958.5, 218.0, 1027.0, 218.0, 1027.0, 156.0, 1052.5, 156.0 ],
					"source" : [ "obj-28", 0 ]
				}

			}
, 			{
				"patchline" : 				{
					"destination" : [ "obj-26", 0 ],
					"disabled" : 0,
					"hidden" : 0,
					"source" : [ "obj-29", 0 ]
				}

			}
, 			{
				"patchline" : 				{
					"destination" : [ "obj-55", 1 ],
					"disabled" : 0,
					"hidden" : 0,
					"source" : [ "obj-30", 0 ]
				}

			}
, 			{
				"patchline" : 				{
					"destination" : [ "obj-31", 0 ],
					"disabled" : 0,
					"hidden" : 0,
					"source" : [ "obj-33", 0 ]
				}

			}
, 			{
				"patchline" : 				{
					"destination" : [ "obj-31", 0 ],
					"disabled" : 0,
					"hidden" : 0,
					"source" : [ "obj-34", 0 ]
				}

			}
, 			{
				"patchline" : 				{
					"destination" : [ "obj-37", 0 ],
					"disabled" : 0,
					"hidden" : 0,
					"source" : [ "obj-36", 0 ]
				}

			}
, 			{
				"patchline" : 				{
					"destination" : [ "obj-14", 1 ],
					"disabled" : 0,
					"hidden" : 0,
					"order" : 1,
					"source" : [ "obj-37", 0 ]
				}

			}
, 			{
				"patchline" : 				{
					"destination" : [ "obj-63", 0 ],
					"disabled" : 0,
					"hidden" : 0,
					"order" : 0,
					"source" : [ "obj-37", 0 ]
				}

			}
, 			{
				"patchline" : 				{
					"destination" : [ "obj-104", 0 ],
					"disabled" : 0,
					"hidden" : 0,
					"midpoints" : [ 647.5, 660.0, 687.5, 660.0 ],
					"order" : 15,
					"source" : [ "obj-4", 0 ]
				}

			}
, 			{
				"patchline" : 				{
					"destination" : [ "obj-41", 0 ],
					"disabled" : 0,
					"hidden" : 0,
					"midpoints" : [ 647.5, 660.0, 792.166687, 660.0 ],
					"order" : 14,
					"source" : [ "obj-4", 0 ]
				}

			}
, 			{
				"patchline" : 				{
					"destination" : [ "obj-43", 0 ],
					"disabled" : 0,
					"hidden" : 0,
					"midpoints" : [ 647.5, 660.0, 896.833313, 660.0 ],
					"order" : 13,
					"source" : [ "obj-4", 0 ]
				}

			}
, 			{
				"patchline" : 				{
					"destination" : [ "obj-45", 0 ],
					"disabled" : 0,
					"hidden" : 0,
					"midpoints" : [ 647.5, 660.0, 1001.5, 660.0 ],
					"order" : 12,
					"source" : [ "obj-4", 0 ]
				}

			}
, 			{
				"patchline" : 				{
					"destination" : [ "obj-53", 0 ],
					"disabled" : 0,
					"hidden" : 0,
					"midpoints" : [ 647.5, 744.0, 1001.5, 744.0 ],
					"order" : 11,
					"source" : [ "obj-4", 0 ]
				}

			}
, 			{
				"patchline" : 				{
					"destination" : [ "obj-54", 0 ],
					"disabled" : 0,
					"hidden" : 0,
					"midpoints" : [ 647.5, 744.0, 896.833313, 744.0 ],
					"order" : 10,
					"source" : [ "obj-4", 0 ]
				}

			}
, 			{
				"patchline" : 				{
					"destination" : [ "obj-56", 0 ],
					"disabled" : 0,
					"hidden" : 0,
					"midpoints" : [ 647.5, 744.0, 792.166687, 744.0 ],
					"order" : 9,
					"source" : [ "obj-4", 0 ]
				}

			}
, 			{
				"patchline" : 				{
					"destination" : [ "obj-57", 0 ],
					"disabled" : 0,
					"hidden" : 0,
					"midpoints" : [ 647.5, 744.0, 687.5, 744.0 ],
					"order" : 8,
					"source" : [ "obj-4", 0 ]
				}

			}
, 			{
				"patchline" : 				{
					"destination" : [ "obj-58", 0 ],
					"disabled" : 0,
					"hidden" : 0,
					"midpoints" : [ 647.5, 831.0, 1001.5, 831.0 ],
					"order" : 7,
					"source" : [ "obj-4", 0 ]
				}

			}
, 			{
				"patchline" : 				{
					"destination" : [ "obj-59", 0 ],
					"disabled" : 0,
					"hidden" : 0,
					"midpoints" : [ 647.5, 831.0, 896.833313, 831.0 ],
					"order" : 6,
					"source" : [ "obj-4", 0 ]
				}

			}
, 			{
				"patchline" : 				{
					"destination" : [ "obj-60", 0 ],
					"disabled" : 0,
					"hidden" : 0,
					"midpoints" : [ 647.5, 831.0, 792.166687, 831.0 ],
					"order" : 5,
					"source" : [ "obj-4", 0 ]
				}

			}
, 			{
				"patchline" : 				{
					"destination" : [ "obj-61", 0 ],
					"disabled" : 0,
					"hidden" : 0,
					"midpoints" : [ 647.5, 831.0, 687.5, 831.0 ],
					"order" : 4,
					"source" : [ "obj-4", 0 ]
				}

			}
, 			{
				"patchline" : 				{
					"destination" : [ "obj-62", 0 ],
					"disabled" : 0,
					"hidden" : 0,
					"midpoints" : [ 647.5, 924.0, 1001.5, 924.0 ],
					"order" : 3,
					"source" : [ "obj-4", 0 ]
				}

			}
, 			{
				"patchline" : 				{
					"destination" : [ "obj-64", 0 ],
					"disabled" : 0,
					"hidden" : 0,
					"midpoints" : [ 647.5, 924.0, 896.833313, 924.0 ],
					"order" : 2,
					"source" : [ "obj-4", 0 ]
				}

			}
, 			{
				"patchline" : 				{
					"destination" : [ "obj-65", 0 ],
					"disabled" : 0,
					"hidden" : 0,
					"midpoints" : [ 647.5, 924.0, 792.166687, 924.0 ],
					"order" : 1,
					"source" : [ "obj-4", 0 ]
				}

			}
, 			{
				"patchline" : 				{
					"destination" : [ "obj-66", 0 ],
					"disabled" : 0,
					"hidden" : 0,
					"midpoints" : [ 647.5, 924.0, 687.5, 924.0 ],
					"order" : 0,
					"source" : [ "obj-4", 0 ]
				}

			}
, 			{
				"patchline" : 				{
					"destination" : [ "obj-6", 1 ],
					"disabled" : 0,
					"hidden" : 0,
					"source" : [ "obj-40", 1 ]
				}

			}
, 			{
				"patchline" : 				{
					"destination" : [ "obj-6", 0 ],
					"disabled" : 0,
					"hidden" : 0,
					"source" : [ "obj-40", 0 ]
				}

			}
, 			{
				"patchline" : 				{
					"destination" : [ "obj-40", 1 ],
					"disabled" : 0,
					"hidden" : 0,
					"midpoints" : [ 866.166687, 744.0, 1224.5, 744.0 ],
					"source" : [ "obj-41", 1 ]
				}

			}
, 			{
				"patchline" : 				{
					"destination" : [ "obj-40", 0 ],
					"disabled" : 0,
					"hidden" : 0,
					"midpoints" : [ 792.166687, 744.0, 1195.5, 744.0 ],
					"source" : [ "obj-41", 0 ]
				}

			}
, 			{
				"patchline" : 				{
					"destination" : [ "obj-15", 0 ],
					"disabled" : 0,
					"hidden" : 0,
					"source" : [ "obj-42", 0 ]
				}

			}
, 			{
				"patchline" : 				{
					"destination" : [ "obj-40", 1 ],
					"disabled" : 0,
					"hidden" : 0,
					"midpoints" : [ 970.833313, 744.0, 1224.5, 744.0 ],
					"source" : [ "obj-43", 1 ]
				}

			}
, 			{
				"patchline" : 				{
					"destination" : [ "obj-40", 0 ],
					"disabled" : 0,
					"hidden" : 0,
					"midpoints" : [ 896.833313, 744.0, 1195.5, 744.0 ],
					"source" : [ "obj-43", 0 ]
				}

			}
, 			{
				"patchline" : 				{
					"destination" : [ "obj-40", 1 ],
					"disabled" : 0,
					"hidden" : 0,
					"midpoints" : [ 1075.5, 744.0, 1224.5, 744.0 ],
					"source" : [ "obj-45", 1 ]
				}

			}
, 			{
				"patchline" : 				{
					"destination" : [ "obj-40", 0 ],
					"disabled" : 0,
					"hidden" : 0,
					"midpoints" : [ 1001.5, 744.0, 1195.5, 744.0 ],
					"source" : [ "obj-45", 0 ]
				}

			}
, 			{
				"patchline" : 				{
					"destination" : [ "obj-137", 0 ],
					"disabled" : 0,
					"hidden" : 0,
					"order" : 1,
					"source" : [ "obj-46", 0 ]
				}

			}
, 			{
				"patchline" : 				{
					"destination" : [ "obj-15", 0 ],
					"disabled" : 0,
					"hidden" : 0,
					"order" : 2,
					"source" : [ "obj-46", 0 ]
				}

			}
, 			{
				"patchline" : 				{
					"destination" : [ "obj-49", 0 ],
					"disabled" : 0,
					"hidden" : 0,
					"order" : 0,
					"source" : [ "obj-46", 0 ]
				}

			}
, 			{
				"patchline" : 				{
					"destination" : [ "obj-86", 0 ],
					"disabled" : 0,
					"hidden" : 0,
					"source" : [ "obj-49", 0 ]
				}

			}
, 			{
				"patchline" : 				{
					"destination" : [ "obj-137", 0 ],
					"disabled" : 0,
					"hidden" : 0,
					"midpoints" : [ 774.5, 422.0, 749.0, 422.0, 749.0, 96.0, 850.5, 96.0 ],
					"source" : [ "obj-5", 0 ]
				}

			}
, 			{
				"patchline" : 				{
					"destination" : [ "obj-55", 0 ],
					"disabled" : 0,
					"hidden" : 0,
					"source" : [ "obj-51", 0 ]
				}

			}
, 			{
				"patchline" : 				{
					"destination" : [ "obj-40", 1 ],
					"disabled" : 0,
					"hidden" : 0,
					"midpoints" : [ 1075.5, 831.0, 1224.5, 831.0 ],
					"source" : [ "obj-53", 1 ]
				}

			}
, 			{
				"patchline" : 				{
					"destination" : [ "obj-40", 0 ],
					"disabled" : 0,
					"hidden" : 0,
					"midpoints" : [ 1001.5, 831.0, 1195.5, 831.0 ],
					"source" : [ "obj-53", 0 ]
				}

			}
, 			{
				"patchline" : 				{
					"destination" : [ "obj-40", 1 ],
					"disabled" : 0,
					"hidden" : 0,
					"midpoints" : [ 970.833313, 831.0, 1224.5, 831.0 ],
					"source" : [ "obj-54", 1 ]
				}

			}
, 			{
				"patchline" : 				{
					"destination" : [ "obj-40", 0 ],
					"disabled" : 0,
					"hidden" : 0,
					"midpoints" : [ 896.833313, 831.0, 1195.5, 831.0 ],
					"source" : [ "obj-54", 0 ]
				}

			}
, 			{
				"patchline" : 				{
					"destination" : [ "obj-104", 2 ],
					"disabled" : 0,
					"hidden" : 0,
					"midpoints" : [ 540.5, 651.0, 761.5, 651.0 ],
					"source" : [ "obj-55", 0 ]
				}

			}
, 			{
				"patchline" : 				{
					"destination" : [ "obj-40", 1 ],
					"disabled" : 0,
					"hidden" : 0,
					"midpoints" : [ 866.166687, 831.0, 1224.5, 831.0 ],
					"source" : [ "obj-56", 1 ]
				}

			}
, 			{
				"patchline" : 				{
					"destination" : [ "obj-40", 0 ],
					"disabled" : 0,
					"hidden" : 0,
					"midpoints" : [ 792.166687, 831.0, 1195.5, 831.0 ],
					"source" : [ "obj-56", 0 ]
				}

			}
, 			{
				"patchline" : 				{
					"destination" : [ "obj-40", 1 ],
					"disabled" : 0,
					"hidden" : 0,
					"midpoints" : [ 761.5, 831.0, 1224.5, 831.0 ],
					"source" : [ "obj-57", 1 ]
				}

			}
, 			{
				"patchline" : 				{
					"destination" : [ "obj-40", 0 ],
					"disabled" : 0,
					"hidden" : 0,
					"midpoints" : [ 687.5, 831.0, 1195.5, 831.0 ],
					"source" : [ "obj-57", 0 ]
				}

			}
, 			{
				"patchline" : 				{
					"destination" : [ "obj-40", 1 ],
					"disabled" : 0,
					"hidden" : 0,
					"midpoints" : [ 1075.5, 924.0, 1224.5, 924.0 ],
					"source" : [ "obj-58", 1 ]
				}

			}
, 			{
				"patchline" : 				{
					"destination" : [ "obj-40", 0 ],
					"disabled" : 0,
					"hidden" : 0,
					"midpoints" : [ 1001.5, 924.0, 1195.5, 924.0 ],
					"source" : [ "obj-58", 0 ]
				}

			}
, 			{
				"patchline" : 				{
					"destination" : [ "obj-40", 1 ],
					"disabled" : 0,
					"hidden" : 0,
					"midpoints" : [ 970.833313, 924.0, 1224.5, 924.0 ],
					"source" : [ "obj-59", 1 ]
				}

			}
, 			{
				"patchline" : 				{
					"destination" : [ "obj-40", 0 ],
					"disabled" : 0,
					"hidden" : 0,
					"midpoints" : [ 896.833313, 924.0, 1195.5, 924.0 ],
					"source" : [ "obj-59", 0 ]
				}

			}
, 			{
				"patchline" : 				{
					"destination" : [ "obj-114", 1 ],
					"disabled" : 0,
					"hidden" : 0,
					"source" : [ "obj-6", 1 ]
				}

			}
, 			{
				"patchline" : 				{
					"destination" : [ "obj-114", 0 ],
					"disabled" : 0,
					"hidden" : 0,
					"source" : [ "obj-6", 0 ]
				}

			}
, 			{
				"patchline" : 				{
					"destination" : [ "obj-40", 1 ],
					"disabled" : 0,
					"hidden" : 0,
					"midpoints" : [ 866.166687, 924.0, 1224.5, 924.0 ],
					"source" : [ "obj-60", 1 ]
				}

			}
, 			{
				"patchline" : 				{
					"destination" : [ "obj-40", 0 ],
					"disabled" : 0,
					"hidden" : 0,
					"midpoints" : [ 792.166687, 924.0, 1195.5, 924.0 ],
					"source" : [ "obj-60", 0 ]
				}

			}
, 			{
				"patchline" : 				{
					"destination" : [ "obj-40", 1 ],
					"disabled" : 0,
					"hidden" : 0,
					"midpoints" : [ 761.5, 924.0, 1224.5, 924.0 ],
					"source" : [ "obj-61", 1 ]
				}

			}
, 			{
				"patchline" : 				{
					"destination" : [ "obj-40", 0 ],
					"disabled" : 0,
					"hidden" : 0,
					"midpoints" : [ 687.5, 924.0, 1195.5, 924.0 ],
					"source" : [ "obj-61", 0 ]
				}

			}
, 			{
				"patchline" : 				{
					"destination" : [ "obj-40", 1 ],
					"disabled" : 0,
					"hidden" : 0,
					"midpoints" : [ 1075.5, 1011.0, 1224.5, 1011.0 ],
					"source" : [ "obj-62", 1 ]
				}

			}
, 			{
				"patchline" : 				{
					"destination" : [ "obj-40", 0 ],
					"disabled" : 0,
					"hidden" : 0,
					"midpoints" : [ 1001.5, 1011.0, 1195.5, 1011.0 ],
					"source" : [ "obj-62", 0 ]
				}

			}
, 			{
				"patchline" : 				{
					"destination" : [ "obj-72", 0 ],
					"disabled" : 0,
					"hidden" : 0,
					"source" : [ "obj-63", 0 ]
				}

			}
, 			{
				"patchline" : 				{
					"destination" : [ "obj-40", 1 ],
					"disabled" : 0,
					"hidden" : 0,
					"midpoints" : [ 970.833313, 1011.0, 1224.5, 1011.0 ],
					"source" : [ "obj-64", 1 ]
				}

			}
, 			{
				"patchline" : 				{
					"destination" : [ "obj-40", 0 ],
					"disabled" : 0,
					"hidden" : 0,
					"midpoints" : [ 896.833313, 1011.0, 1195.5, 1011.0 ],
					"source" : [ "obj-64", 0 ]
				}

			}
, 			{
				"patchline" : 				{
					"destination" : [ "obj-40", 1 ],
					"disabled" : 0,
					"hidden" : 0,
					"midpoints" : [ 866.166687, 1011.0, 1224.5, 1011.0 ],
					"source" : [ "obj-65", 1 ]
				}

			}
, 			{
				"patchline" : 				{
					"destination" : [ "obj-40", 0 ],
					"disabled" : 0,
					"hidden" : 0,
					"midpoints" : [ 792.166687, 1011.0, 1195.5, 1011.0 ],
					"source" : [ "obj-65", 0 ]
				}

			}
, 			{
				"patchline" : 				{
					"destination" : [ "obj-40", 1 ],
					"disabled" : 0,
					"hidden" : 0,
					"midpoints" : [ 761.5, 1011.0, 1224.5, 1011.0 ],
					"source" : [ "obj-66", 1 ]
				}

			}
, 			{
				"patchline" : 				{
					"destination" : [ "obj-40", 0 ],
					"disabled" : 0,
					"hidden" : 0,
					"midpoints" : [ 687.5, 1011.0, 1195.5, 1011.0 ],
					"source" : [ "obj-66", 0 ]
				}

			}
, 			{
				"patchline" : 				{
					"destination" : [ "obj-84", 1 ],
					"disabled" : 0,
					"hidden" : 0,
					"source" : [ "obj-72", 0 ]
				}

			}
, 			{
				"patchline" : 				{
					"destination" : [ "obj-27", 0 ],
					"disabled" : 0,
					"hidden" : 0,
					"source" : [ "obj-8", 0 ]
				}

			}
, 			{
				"patchline" : 				{
					"destination" : [ "obj-85", 0 ],
					"disabled" : 0,
					"hidden" : 0,
					"source" : [ "obj-86", 1 ]
				}

			}
, 			{
				"patchline" : 				{
					"destination" : [ "obj-86", 0 ],
					"disabled" : 0,
					"hidden" : 0,
					"source" : [ "obj-88", 0 ]
				}

			}
, 			{
				"patchline" : 				{
					"destination" : [ "obj-85", 2 ],
					"disabled" : 0,
					"hidden" : 0,
					"source" : [ "obj-92", 0 ]
				}

			}
 ],
		"parameters" : 		{
			"obj-45::obj-62" : [ "f_amt[3]", "f_amt", 0 ],
			"obj-59::obj-92" : [ "release[9]", "R", 0 ],
			"obj-64::obj-19" : [ "delay[13]", "delay", 0 ],
			"obj-65::obj-62" : [ "f_amt[14]", "f_amt", 0 ],
			"obj-36" : [ "tempo", "tempo", 0 ],
			"obj-43::obj-92" : [ "release[2]", "R", 0 ],
			"obj-58::obj-62" : [ "f_amt[8]", "f_amt", 0 ],
			"obj-61::obj-34" : [ "duration[11]", "duration", 0 ],
			"obj-62::obj-43" : [ "pwm_amt[12]", "pwm_amt", 0 ],
			"obj-65::obj-117" : [ "level[29]", "level", 0 ],
			"obj-66::obj-43" : [ "pwm_amt[15]", "pwm_amt", 0 ],
			"obj-54::obj-89" : [ "sustain[5]", "S", 0 ],
			"obj-57::obj-29" : [ "filter[7]", "filter", 0 ],
			"obj-59::obj-117" : [ "level[19]", "level", 0 ],
			"obj-62::obj-89" : [ "sustain[12]", "S", 0 ],
			"obj-54::obj-34" : [ "duration[5]", "duration", 0 ],
			"obj-58::obj-92" : [ "release[8]", "R", 0 ],
			"obj-60::obj-92" : [ "release[10]", "R", 0 ],
			"obj-62::obj-34" : [ "duration[12]", "duration", 0 ],
			"obj-64::obj-89" : [ "sustain[13]", "S", 0 ],
			"obj-64::obj-43" : [ "pwm_amt[13]", "pwm_amt", 0 ],
			"obj-66::obj-34" : [ "duration[15]", "duration", 0 ],
			"obj-104::obj-53" : [ "pw", "pw", 0 ],
			"obj-43::obj-117" : [ "level[5]", "level", 0 ],
			"obj-53::obj-13" : [ "freq[4]", "freq", 0 ],
			"obj-56::obj-117" : [ "level[13]", "level", 0 ],
			"obj-41::obj-88" : [ "deacy[1]", "D", 0 ],
			"obj-60::obj-10" : [ "level[20]", "level", 0 ],
			"obj-64::obj-87" : [ "attack[13]", "A", 0 ],
			"obj-61::obj-28" : [ "f_freq[11]", "f_freq", 0 ],
			"obj-43::obj-87" : [ "attack[2]", "A", 0 ],
			"obj-56::obj-92" : [ "release[6]", "R", 0 ],
			"obj-61::obj-10" : [ "level[22]", "level", 0 ],
			"obj-64::obj-117" : [ "level[27]", "level", 0 ],
			"obj-57::obj-28" : [ "f_freq[7]", "f_freq", 0 ],
			"obj-65::obj-43" : [ "pwm_amt[14]", "pwm_amt", 0 ],
			"obj-41::obj-55" : [ "fm_amt[1]", "fm_amt", 0 ],
			"obj-45::obj-13" : [ "freq[3]", "freq", 0 ],
			"obj-41::obj-66" : [ "f_res[1]", "f_res", 0 ],
			"obj-54::obj-13" : [ "freq[5]", "freq", 0 ],
			"obj-57::obj-34" : [ "duration[7]", "duration", 0 ],
			"obj-22" : [ "lfo_02", "lfo_02", 0 ],
			"obj-59::obj-62" : [ "f_amt[9]", "f_amt", 0 ],
			"obj-62::obj-28" : [ "f_freq[12]", "f_freq", 0 ],
			"obj-40" : [ "live.gain~", "live.gain~", 0 ],
			"obj-57::obj-92" : [ "release[7]", "R", 0 ],
			"obj-60::obj-53" : [ "pw[10]", "pw", 0 ],
			"obj-21" : [ "lfo 01", "lfo_01", 0 ],
			"obj-104::obj-28" : [ "f_freq", "f_freq", 0 ],
			"obj-41::obj-29" : [ "filter[1]", "filter", 0 ],
			"obj-56::obj-19" : [ "delay[6]", "delay", 0 ],
			"obj-58::obj-10" : [ "level[16]", "level", 0 ],
			"obj-59::obj-53" : [ "pw[9]", "pw", 0 ],
			"obj-43::obj-43" : [ "pwm_amt[2]", "pwm_amt", 0 ],
			"obj-8" : [ "lfo 0", "lfo_00", 0 ],
			"obj-41::obj-13" : [ "freq[1]", "freq", 0 ],
			"obj-56::obj-10" : [ "level[12]", "level", 0 ],
			"obj-56::obj-29" : [ "filter[6]", "filter", 0 ],
			"obj-58::obj-19" : [ "delay[8]", "delay", 0 ],
			"obj-60::obj-66" : [ "f_res[10]", "f_res", 0 ],
			"obj-64::obj-13" : [ "freq[13]", "freq", 0 ],
			"obj-45::obj-19" : [ "delay[3]", "delay", 0 ],
			"obj-53::obj-88" : [ "deacy[4]", "D", 0 ],
			"obj-58::obj-89" : [ "sustain[8]", "S", 0 ],
			"obj-104::obj-10" : [ "level[1]", "level", 0 ],
			"obj-41::obj-53" : [ "pw[1]", "pw", 0 ],
			"obj-56::obj-13" : [ "freq[6]", "freq", 0 ],
			"obj-57::obj-55" : [ "fm_amt[7]", "fm_amt", 0 ],
			"obj-58::obj-117" : [ "level[17]", "level", 0 ],
			"obj-58::obj-66" : [ "f_res[8]", "f_res", 0 ],
			"obj-58::obj-29" : [ "filter[8]", "filter", 0 ],
			"obj-54::obj-88" : [ "deacy[5]", "D", 0 ],
			"obj-58::obj-87" : [ "attack[8]", "A", 0 ],
			"obj-60::obj-28" : [ "f_freq[10]", "f_freq", 0 ],
			"obj-104::obj-34" : [ "duration", "duration", 0 ],
			"obj-43::obj-28" : [ "f_freq[2]", "f_freq", 0 ],
			"obj-53::obj-53" : [ "pw[4]", "pw", 0 ],
			"obj-56::obj-87" : [ "attack[6]", "A", 0 ],
			"obj-56::obj-55" : [ "fm_amt[6]", "fm_amt", 0 ],
			"obj-58::obj-13" : [ "freq[8]", "freq", 0 ],
			"obj-59::obj-19" : [ "delay[9]", "delay", 0 ],
			"obj-104::obj-89" : [ "sustain", "S", 0 ],
			"obj-43::obj-10" : [ "level[4]", "level", 0 ],
			"obj-45::obj-53" : [ "pw[3]", "pw", 0 ],
			"obj-54::obj-87" : [ "attack[5]", "A", 0 ],
			"obj-60::obj-19" : [ "delay[10]", "delay", 0 ],
			"obj-65::obj-87" : [ "attack[14]", "A", 0 ],
			"obj-45::obj-66" : [ "f_res[3]", "f_res", 0 ],
			"obj-56::obj-89" : [ "sustain[6]", "S", 0 ],
			"obj-56::obj-53" : [ "pw[6]", "pw", 0 ],
			"obj-58::obj-55" : [ "fm_amt[8]", "fm_amt", 0 ],
			"obj-43::obj-53" : [ "pw[2]", "pw", 0 ],
			"obj-56::obj-62" : [ "f_amt[6]", "f_amt", 0 ],
			"obj-57::obj-66" : [ "f_res[7]", "f_res", 0 ],
			"obj-59::obj-28" : [ "f_freq[9]", "f_freq", 0 ],
			"obj-61::obj-117" : [ "level[23]", "level", 0 ],
			"obj-53::obj-28" : [ "f_freq[4]", "f_freq", 0 ],
			"obj-54::obj-55" : [ "fm_amt[5]", "fm_amt", 0 ],
			"obj-56::obj-88" : [ "deacy[6]", "D", 0 ],
			"obj-56::obj-43" : [ "pwm_amt[6]", "pwm_amt", 0 ],
			"obj-58::obj-53" : [ "pw[8]", "pw", 0 ],
			"obj-43::obj-62" : [ "f_amt[2]", "f_amt", 0 ],
			"obj-54::obj-92" : [ "release[5]", "R", 0 ],
			"obj-57::obj-62" : [ "f_amt[7]", "f_amt", 0 ],
			"obj-57::obj-19" : [ "delay[7]", "delay", 0 ],
			"obj-62::obj-92" : [ "release[12]", "R", 0 ],
			"obj-104::obj-13" : [ "freq", "freq", 0 ],
			"obj-41::obj-92" : [ "release[1]", "R", 0 ],
			"obj-53::obj-62" : [ "f_amt[4]", "f_amt", 0 ],
			"obj-56::obj-34" : [ "duration[6]", "duration", 0 ],
			"obj-57::obj-117" : [ "level[15]", "level", 0 ],
			"obj-58::obj-43" : [ "pwm_amt[8]", "pwm_amt", 0 ],
			"obj-60::obj-43" : [ "pwm_amt[10]", "pwm_amt", 0 ],
			"obj-64::obj-53" : [ "pw[13]", "pw", 0 ],
			"obj-104::obj-66" : [ "f_res", "f_res", 0 ],
			"obj-45::obj-89" : [ "sustain[3]", "S", 0 ],
			"obj-53::obj-29" : [ "filter[4]", "filter", 0 ],
			"obj-59::obj-43" : [ "pwm_amt[9]", "pwm_amt", 0 ],
			"obj-45::obj-43" : [ "pwm_amt[3]", "pwm_amt", 0 ],
			"obj-57::obj-89" : [ "sustain[7]", "S", 0 ],
			"obj-58::obj-34" : [ "duration[8]", "duration", 0 ],
			"obj-65::obj-28" : [ "f_freq[14]", "f_freq", 0 ],
			"obj-66::obj-88" : [ "deacy[15]", "D", 0 ],
			"obj-104::obj-43" : [ "pwm_amt", "pwm_amt", 0 ],
			"obj-41::obj-117" : [ "level[3]", "level", 0 ],
			"obj-59::obj-10" : [ "level[18]", "level", 0 ],
			"obj-61::obj-62" : [ "f_amt[11]", "f_amt", 0 ],
			"obj-65::obj-89" : [ "sustain[14]", "S", 0 ],
			"obj-57::obj-87" : [ "attack[7]", "A", 0 ],
			"obj-60::obj-117" : [ "level[21]", "level", 0 ],
			"obj-62::obj-10" : [ "level[24]", "level", 0 ],
			"obj-65::obj-19" : [ "delay[14]", "delay", 0 ],
			"obj-56::obj-28" : [ "f_freq[6]", "f_freq", 0 ],
			"obj-65::obj-53" : [ "pw[14]", "pw", 0 ],
			"obj-41::obj-87" : [ "attack[1]", "A", 0 ],
			"obj-45::obj-55" : [ "fm_amt[3]", "fm_amt", 0 ],
			"obj-57::obj-10" : [ "level[14]", "level", 0 ],
			"obj-65::obj-29" : [ "filter[14]", "filter", 0 ],
			"obj-104::obj-62" : [ "f_amt", "f_amt", 0 ],
			"obj-57::obj-43" : [ "pwm_amt[7]", "pwm_amt", 0 ],
			"obj-59::obj-89" : [ "sustain[9]", "S", 0 ],
			"obj-59::obj-29" : [ "filter[9]", "filter", 0 ],
			"obj-61::obj-66" : [ "f_res[11]", "f_res", 0 ],
			"obj-23" : [ "lfo_03", "lfo_03", 0 ],
			"obj-65::obj-88" : [ "deacy[14]", "D", 0 ],
			"obj-65::obj-13" : [ "freq[14]", "freq", 0 ],
			"obj-43::obj-19" : [ "delay[2]", "delay", 0 ],
			"obj-53::obj-34" : [ "duration[4]", "duration", 0 ],
			"obj-59::obj-88" : [ "deacy[9]", "D", 0 ],
			"obj-64::obj-88" : [ "deacy[13]", "D", 0 ],
			"obj-66::obj-28" : [ "f_freq[15]", "f_freq", 0 ],
			"obj-54::obj-62" : [ "f_amt[5]", "f_amt", 0 ],
			"obj-65::obj-55" : [ "fm_amt[14]", "fm_amt", 0 ],
			"obj-53::obj-92" : [ "release[4]", "R", 0 ],
			"obj-54::obj-53" : [ "pw[5]", "pw", 0 ],
			"obj-59::obj-87" : [ "attack[9]", "A", 0 ],
			"obj-65::obj-10" : [ "level[28]", "level", 0 ],
			"obj-66::obj-62" : [ "f_amt[15]", "f_amt", 0 ],
			"obj-104::obj-88" : [ "deacy", "D", 0 ],
			"obj-104::obj-87" : [ "attack", "A", 0 ],
			"obj-60::obj-89" : [ "sustain[10]", "S", 0 ],
			"obj-64::obj-29" : [ "filter[13]", "filter", 0 ],
			"obj-104::obj-29" : [ "filter", "filter", 0 ],
			"obj-43::obj-29" : [ "filter[2]", "filter", 0 ],
			"obj-59::obj-66" : [ "f_res[9]", "f_res", 0 ],
			"obj-60::obj-34" : [ "duration[10]", "duration", 0 ],
			"obj-66::obj-92" : [ "release[15]", "R", 0 ],
			"obj-43::obj-13" : [ "freq[2]", "freq", 0 ],
			"obj-45::obj-10" : [ "level[6]", "level", 0 ],
			"obj-54::obj-10" : [ "level[10]", "level", 0 ],
			"obj-54::obj-66" : [ "f_res[5]", "f_res", 0 ],
			"obj-57::obj-13" : [ "freq[7]", "freq", 0 ],
			"obj-59::obj-34" : [ "duration[9]", "duration", 0 ],
			"obj-104::obj-117" : [ "level", "level", 0 ],
			"obj-43::obj-88" : [ "deacy[2]", "D", 0 ],
			"obj-45::obj-29" : [ "filter[3]", "filter", 0 ],
			"obj-64::obj-34" : [ "duration[13]", "duration", 0 ],
			"obj-65::obj-92" : [ "release[14]", "R", 0 ],
			"obj-41::obj-34" : [ "duration[1]", "duration", 0 ],
			"obj-53::obj-117" : [ "level[9]", "level", 0 ],
			"obj-53::obj-66" : [ "f_res[4]", "f_res", 0 ],
			"obj-53::obj-55" : [ "fm_amt[4]", "fm_amt", 0 ],
			"obj-66::obj-10" : [ "level[30]", "level", 0 ],
			"obj-53::obj-87" : [ "attack[4]", "A", 0 ],
			"obj-61::obj-92" : [ "release[11]", "R", 0 ],
			"obj-41::obj-28" : [ "f_freq[1]", "f_freq", 0 ],
			"obj-45::obj-87" : [ "attack[3]", "A", 0 ],
			"obj-54::obj-19" : [ "delay[5]", "delay", 0 ],
			"obj-64::obj-28" : [ "f_freq[13]", "f_freq", 0 ],
			"obj-41::obj-43" : [ "pwm_amt[1]", "pwm_amt", 0 ],
			"obj-62::obj-87" : [ "attack[12]", "A", 0 ],
			"obj-41::obj-19" : [ "delay[1]", "delay", 0 ],
			"obj-43::obj-66" : [ "f_res[2]", "f_res", 0 ],
			"obj-59::obj-13" : [ "freq[9]", "freq", 0 ],
			"obj-60::obj-29" : [ "filter[10]", "filter", 0 ],
			"obj-65::obj-34" : [ "duration[14]", "duration", 0 ],
			"obj-54::obj-28" : [ "f_freq[5]", "f_freq", 0 ],
			"obj-45::obj-88" : [ "deacy[3]", "D", 0 ],
			"obj-60::obj-13" : [ "freq[10]", "freq", 0 ],
			"obj-64::obj-92" : [ "release[13]", "R", 0 ],
			"obj-41::obj-62" : [ "f_amt[1]", "f_amt", 0 ],
			"obj-45::obj-92" : [ "release[3]", "R", 0 ],
			"obj-53::obj-19" : [ "delay[4]", "delay", 0 ],
			"obj-61::obj-19" : [ "delay[11]", "delay", 0 ],
			"obj-66::obj-117" : [ "level[31]", "level", 0 ],
			"obj-104::obj-92" : [ "release", "R", 0 ],
			"obj-43::obj-55" : [ "fm_amt[2]", "fm_amt", 0 ],
			"obj-53::obj-10" : [ "level[8]", "level", 0 ],
			"obj-54::obj-43" : [ "pwm_amt[5]", "pwm_amt", 0 ],
			"obj-60::obj-55" : [ "fm_amt[10]", "fm_amt", 0 ],
			"obj-62::obj-66" : [ "f_res[12]", "f_res", 0 ],
			"obj-64::obj-66" : [ "f_res[13]", "f_res", 0 ],
			"obj-104::obj-55" : [ "fm_amt", "fm_amt", 0 ],
			"obj-41::obj-89" : [ "sustain[1]", "S", 0 ],
			"obj-43::obj-89" : [ "sustain[2]", "S", 0 ],
			"obj-61::obj-29" : [ "filter[11]", "filter", 0 ],
			"obj-62::obj-19" : [ "delay[12]", "delay", 0 ],
			"obj-66::obj-19" : [ "delay[15]", "delay", 0 ],
			"obj-53::obj-89" : [ "sustain[4]", "S", 0 ],
			"obj-58::obj-88" : [ "deacy[8]", "D", 0 ],
			"obj-64::obj-10" : [ "level[26]", "level", 0 ],
			"obj-64::obj-62" : [ "f_amt[13]", "f_amt", 0 ],
			"obj-66::obj-89" : [ "sustain[15]", "S", 0 ],
			"obj-41::obj-10" : [ "level[2]", "level", 0 ],
			"obj-60::obj-62" : [ "f_amt[10]", "f_amt", 0 ],
			"obj-61::obj-13" : [ "freq[11]", "freq", 0 ],
			"obj-62::obj-29" : [ "filter[12]", "filter", 0 ],
			"obj-64::obj-55" : [ "fm_amt[13]", "fm_amt", 0 ],
			"obj-66::obj-66" : [ "f_res[15]", "f_res", 0 ],
			"obj-66::obj-29" : [ "filter[15]", "filter", 0 ],
			"obj-6" : [ "amxd~", "amxd~", 0 ],
			"obj-54::obj-117" : [ "level[11]", "level", 0 ],
			"obj-60::obj-88" : [ "deacy[10]", "D", 0 ],
			"obj-62::obj-117" : [ "level[25]", "level", 0 ],
			"obj-66::obj-87" : [ "attack[15]", "A", 0 ],
			"obj-45::obj-28" : [ "f_freq[3]", "f_freq", 0 ],
			"obj-57::obj-53" : [ "pw[7]", "pw", 0 ],
			"obj-61::obj-87" : [ "attack[11]", "A", 0 ],
			"obj-61::obj-55" : [ "fm_amt[11]", "fm_amt", 0 ],
			"obj-62::obj-13" : [ "freq[12]", "freq", 0 ],
			"obj-66::obj-13" : [ "freq[15]", "freq", 0 ],
			"obj-45::obj-117" : [ "level[7]", "level", 0 ],
			"obj-45::obj-34" : [ "duration[3]", "duration", 0 ],
			"obj-60::obj-87" : [ "attack[10]", "A", 0 ],
			"obj-61::obj-88" : [ "deacy[11]", "D", 0 ],
			"obj-53::obj-43" : [ "pwm_amt[4]", "pwm_amt", 0 ],
			"obj-54::obj-29" : [ "filter[5]", "filter", 0 ],
			"obj-56::obj-66" : [ "f_res[6]", "f_res", 0 ],
			"obj-61::obj-89" : [ "sustain[11]", "S", 0 ],
			"obj-61::obj-53" : [ "pw[11]", "pw", 0 ],
			"obj-62::obj-55" : [ "fm_amt[12]", "fm_amt", 0 ],
			"obj-66::obj-55" : [ "fm_amt[15]", "fm_amt", 0 ],
			"obj-57::obj-88" : [ "deacy[7]", "D", 0 ],
			"obj-62::obj-62" : [ "f_amt[12]", "f_amt", 0 ],
			"obj-65::obj-66" : [ "f_res[14]", "f_res", 0 ],
			"obj-104::obj-19" : [ "delay", "delay", 0 ],
			"obj-43::obj-34" : [ "duration[2]", "duration", 0 ],
			"obj-58::obj-28" : [ "f_freq[8]", "f_freq", 0 ],
			"obj-59::obj-55" : [ "fm_amt[9]", "fm_amt", 0 ],
			"obj-61::obj-43" : [ "pwm_amt[11]", "pwm_amt", 0 ],
			"obj-62::obj-88" : [ "deacy[12]", "D", 0 ],
			"obj-62::obj-53" : [ "pw[12]", "pw", 0 ],
			"obj-66::obj-53" : [ "pw[15]", "pw", 0 ]
		}
,
		"dependency_cache" : [ 			{
				"name" : "pulse~.maxpat",
				"bootpath" : "D:/max/pulse",
				"type" : "JSON",
				"implicit" : 1
			}
, 			{
				"name" : "decinc.maxpat",
				"bootpath" : "D:/max/pulse",
				"type" : "JSON",
				"implicit" : 1
			}
, 			{
				"name" : "pulses.json",
				"bootpath" : "D:/max/pulse",
				"type" : "JSON",
				"implicit" : 1
			}
, 			{
				"name" : "ChamberVerb.amxd.maxsnap",
				"bootpath" : "~/Documents/Max 7/Snapshots",
				"type" : "mx@s",
				"implicit" : 1
			}
, 			{
				"name" : "ChamberVerb.amxd",
				"type" : "JSON",
				"implicit" : 1
			}
, 			{
				"name" : "chamber.Punch~.maxpat",
				"type" : "JSON",
				"implicit" : 1
			}
, 			{
				"name" : "pluggo.dryWet2~.maxpat",
				"type" : "JSON",
				"implicit" : 1
			}
 ],
		"autosave" : 0,
		"styles" : [ 			{
				"name" : "newobjBlue-1",
				"default" : 				{
					"accentcolor" : [ 0.317647, 0.654902, 0.976471, 1.0 ]
				}
,
				"parentstyle" : "",
				"multi" : 0
			}
, 			{
				"name" : "newobjYellow-1",
				"default" : 				{
					"fontsize" : [ 12.059008 ],
					"accentcolor" : [ 0.82517, 0.78181, 0.059545, 1.0 ]
				}
,
				"parentstyle" : "",
				"multi" : 0
			}
, 			{
				"name" : "numberGold-1",
				"default" : 				{
					"accentcolor" : [ 0.764706, 0.592157, 0.101961, 1.0 ]
				}
,
				"parentstyle" : "",
				"multi" : 0
			}
, 			{
				"name" : "rsliderGold",
				"default" : 				{
					"color" : [ 0.646639, 0.821777, 0.854593, 1.0 ],
					"bgcolor" : [ 0.764706, 0.592157, 0.101961, 1.0 ]
				}
,
				"parentstyle" : "",
				"multi" : 0
			}
 ]
	}

}
